<?xml version="1.0" encoding="utf-8"?>
<!-- Generator: Adobe Illustrator 23.0.2, SVG Export Plug-In . SVG Version: 6.00 Build 0)  -->
<svg version="1.1" id="Layer_1" xmlns="http://www.w3.org/2000/svg" xmlns:xlink="http://www.w3.org/1999/xlink" x="0px" y="0px"
	 viewBox="0 0 32 32" style="enable-background:new 0 0 32 32;" xml:space="preserve">
<style type="text/css">
	.st0{fill:#FBCA00;}
    .st1{fill:grey;}
</style>
<g>
	<polygon class="st1" points="9.2,27.41 16,23.25 22.8,27.41 20.95,19.66 27,14.47 19.06,13.84 16,6.48 12.94,13.84 5,14.47 
		11.05,19.66 	"/>
	<path class="st0" d="M7.35,29.31L16,24.02l8.65,5.29l-2.36-9.86l7.7-6.59l-10.11-0.81L16,2.69l-3.89,9.37L2,12.86l7.7,6.59
		L7.35,29.31z M7.46,14.63l4.82-0.38l1.34-0.11l0.52-1.24L16,8.43l1.86,4.47l0.52,1.24l1.34,0.11l4.82,0.38l-3.68,3.15l-1.02,0.88
		l0.31,1.31l1.13,4.71l-4.13-2.52L16,21.44l-1.15,0.7l-4.13,2.52l1.13-4.71l0.31-1.31l-1.02-0.88L7.46,14.63z"/>
</g>
</svg>
