<svg xmlns="http://www.w3.org/2000/svg" xmlns:xlink="http://www.w3.org/1999/xlink" id="Layer_1" x="0" y="0" version="1.1" viewBox="0 0 32 32" xml:space="preserve" style="enable-background:new 0 0 32 32"><style type="text/css">.st0{fill:#fbca00}</style><path d="M7.35,30L16,24.44L24.65,30L22.3,19.63L30,12.7l-10.11-0.85L16,2l-3.89,9.85L2,12.7l7.7,6.93L7.35,30z M12.37,15.33l2.03-0.17l0.78-1.98L16,11.12l0.82,2.07l0.78,1.98l2.03,0.17l2.13,0.18l-1.62,1.46l-1.55,1.39l0.47,2.08l0.5,2.18	l-1.82-1.17L16,20.34l-1.74,1.12l-1.82,1.17l0.5-2.18l0.47-2.08l-1.55-1.39l-1.62-1.46L12.37,15.33z" class="st0"/></svg>