<?xml version="1.0" encoding="utf-8"?>
<!-- Generator: Adobe Illustrator 23.0.2, SVG Export Plug-In . SVG Version: 6.00 Build 0)  -->
<svg version="1.1" id="Layer_1" xmlns="http://www.w3.org/2000/svg" xmlns:xlink="http://www.w3.org/1999/xlink" x="0px" y="0px"
	 viewBox="0 0 32 32" style="enable-background:new 0 0 32 32;" xml:space="preserve">
<style type="text/css">
	.st0{fill:#FBCA00;}
</style>
<path class="st0" d="M7.35,30L16,24.44L24.65,30L22.3,19.63L30,12.7l-10.11-0.85L16,2l-3.89,9.85L2,12.7l7.7,6.93L7.35,30z
	 M12.37,15.33l2.03-0.17l0.78-1.98L16,11.12l0.82,2.07l0.78,1.98l2.03,0.17l2.13,0.18l-1.62,1.46l-1.55,1.39l0.47,2.08l0.5,2.18
	l-1.82-1.17L16,20.34l-1.74,1.12l-1.82,1.17l0.5-2.18l0.47-2.08l-1.55-1.39l-1.62-1.46L12.37,15.33z"/>
</svg>
