<svg xmlns="http://www.w3.org/2000/svg" xmlns:xlink="http://www.w3.org/1999/xlink" x="0" y="0" version="1.1" viewBox="0 0 500 500" xml:space="preserve" style="enable-background:new 0 0 500 500"><style type="text/css">.st0{fill:url(#SVGID_1_)}.st1{fill:url(#SVGID_2_)}.st2{fill:#257573}.st3{fill:#4e0a06}.st4{fill:url(#SVGID_3_)}.st5{fill:url(#SVGID_4_)}.st6{fill:url(#SVGID_5_)}.st7{fill:#fff}.st8{fill:#c6c2a6}.st9{fill:#9f0c24}.st10{fill:url(#SVGID_6_)}.st11,.st12{fill:none;stroke:#9f0c24;stroke-width:1.8913;stroke-miterlimit:10}.st12{stroke-width:1.2797}.st13{fill:url(#SVGID_7_)}.st14{fill:url(#SVGID_8_)}.st15{fill:#c3e1cc}.st16{fill:none;stroke:#c3e1cc;stroke-miterlimit:10}.st17{fill:#f28c00}.st18{opacity:.38;fill:url(#SVGID_9_)}.st19{opacity:.44;fill:#1d1d1b}.st20{fill:#de680e}.st21{fill:#521c00}.st22{opacity:.27;fill:#1d1d1b}.st23,.st24{opacity:.18;fill:#fff}.st24{opacity:.48}.st25,.st26{fill:none;stroke:#c3e1cc;stroke-width:.9833;stroke-miterlimit:10}.st26{stroke:#009a9f;stroke-width:2.0754}.st27{fill:#e4051f}.st28{fill:#c88300}.st29{fill:#9e5e0d}.st30{fill:none;stroke:#c88300;stroke-width:2.075;stroke-linecap:round;stroke-miterlimit:10}.st31{fill:#75ccf4}.st32{opacity:.63;fill:#006f9e}.st33{fill:none;stroke:#c3e1cc;stroke-width:1.067;stroke-miterlimit:10}.st34{fill:#006da1}.st35{fill:#c79f6e}.st36{fill:#ecd6a7}.st37{fill:#fffde8}.st38{fill:#ede7bf}.st39{fill:none;stroke:#a45e00;stroke-width:1.1577;stroke-linecap:round;stroke-linejoin:round;stroke-miterlimit:10}.st40{fill:#e30613}.st41{fill:none;stroke:#c3e1cc;stroke-width:1.0116;stroke-miterlimit:10}.st42{fill:#ffd600}.st43{fill:#f7ab19}.st44{fill:#c67f16}.st45{fill:#ffebc5}.st46{fill:#e4c399}.st47{fill:#36311c}.st48{fill:#bccf00}.st49,.st50{fill:none;stroke:#eee300;stroke-width:1.0272;stroke-linecap:round;stroke-linejoin:round;stroke-miterlimit:10}.st50{stroke-width:2.0545}.st51{opacity:.45;fill:#40bbcf}</style><g id="BACKGROUND"><radialGradient id="SVGID_1_" cx="250" cy="250" r="250" gradientUnits="userSpaceOnUse"><stop offset="0" style="stop-color:#45d9b9"/><stop offset="1" style="stop-color:#45c2b9"/></radialGradient><rect width="500" height="500" class="st0"/><linearGradient id="SVGID_2_" x1="250" x2="250" y1="370.603" y2="495.686" gradientUnits="userSpaceOnUse"><stop offset="0" style="stop-color:#38adab"/><stop offset="1" style="stop-color:#38c3c0"/></linearGradient><rect width="500" height="139.69" y="360.31" class="st1"/><ellipse cx="246.55" cy="367.09" class="st2" rx="218.45" ry="4.44"/></g><g id="OBJECTS"><g><path d="M266.71,364.37c0,2.53-7.41,4.58-16.54,4.58c-9.14,0-16.54-2.05-16.54-4.58c0-2.53,8.29-5.61,17.43-5.61 S266.71,361.84,266.71,364.37z" class="st3"/><radialGradient id="SVGID_3_" cx="174.452" cy="331.883" r="56.525" gradientUnits="userSpaceOnUse"><stop offset="0" style="stop-color:#fffdf0"/><stop offset="1" style="stop-color:#f3edc9"/></radialGradient><path d="M249.23,354.23c-5.88-35.44-26.15-41.37-45.22-42.5c-22.1-1.3-39.91,4.1-57.13,9.33 c-15.48,4.7-33.18,9.44-49.18,8.23l3.22-2.28c15.63,1.17,30.08-3.21,45.38-7.86c17.39-5.28,35.38-10.74,57.83-9.42 c18.69,1.1,40.93,7.12,47.07,44.17L249.23,354.23z" class="st4"/><radialGradient id="SVGID_4_" cx="323.219" cy="334.987" r="54.305" gradientUnits="userSpaceOnUse"><stop offset="0" style="stop-color:#fffdf0"/><stop offset="1" style="stop-color:#f3edc9"/></radialGradient><path d="M250.66,353.46l-1.99-0.22c1.27-11.5,8.24-22.39,18.65-29.13c9.3-6.03,25.48-11.57,49.72-3.76 c7.47,2.41,14.21,4.63,20.17,6.59c26.48,8.71,41.07,13.51,58.68,14.84l1.88,2.13c-17.85-1.34-34.55-6.31-61.18-15.07 c-5.95-1.96-12.69-4.18-20.16-6.58c-23.49-7.57-39.08-2.25-48.02,3.54C258.5,332.21,251.87,342.55,250.66,353.46z" class="st5"/><g><polygon points="235.04 340.33 184.74 340.04 75.96 357.97 62.61 363.6 235.04 363.6" class="st3"/><radialGradient id="SVGID_5_" cx="162.058" cy="343.881" r="104.629" gradientUnits="userSpaceOnUse"><stop offset="0" style="stop-color:#fffdf0"/><stop offset="1" style="stop-color:#f3edc9"/></radialGradient><path d="M249.67,351.4c-4.24-19.76-32.59-40.39-73.44-23.87c-40.85,16.52-65.16,20.36-91.78,20.36 c-6.42,6.74-16.09,14.52-16.09,14.52s64.86,2.14,94.1-4.59c35.91-8.26,56-20.2,71.61,5.05c7.08-4.59,16.07-4.59,16.07-4.59 S250.57,355.61,249.67,351.4z" class="st6"/><path d="M84.44,349.85c26.62,0,50.93-3.84,91.78-20.36c40.85-16.52,69.2,4.11,73.44,23.87 c0.34,1.59,0.49,2.96,0.54,4.05c0.06-1.11,0.05-3.22-0.54-6c-4.24-19.76-32.59-40.39-73.44-23.87 c-40.85,16.52-65.16,20.36-91.78,20.36c-6.42,6.74-16.09,14.52-16.09,14.52S79.96,354.55,84.44,349.85z" class="st7"/><g><path d="M87.66,353.03c0,0,0.4,0.11,1.14,0.3c0.74,0.24,1.86,0.36,3.26,0.59c0.71,0.07,1.5,0.15,2.35,0.24 c0.86,0.04,1.79,0.09,2.78,0.14c1.99,0.05,4.23,0.06,6.68,0.01c4.9-0.11,10.6-0.6,16.66-1.39c3.03-0.39,6.15-0.9,9.31-1.48 c3.16-0.58,6.35-1.26,9.51-2.05c1.59-0.35,3.16-0.81,4.72-1.23c1.57-0.41,3.11-0.91,4.64-1.39c3.07-0.96,6.07-1.99,9.03-2.88 c2.94-0.93,5.81-1.73,8.53-2.47c2.72-0.74,5.31-1.4,7.7-1.99c4.79-1.17,8.83-1.91,11.65-2.43c2.83-0.49,4.46-0.67,4.46-0.67 s-1.61,0.32-4.4,0.99c-2.79,0.65-6.75,1.72-11.47,3.03c-2.36,0.67-4.91,1.42-7.6,2.26c-2.68,0.84-5.51,1.75-8.42,2.71 c-2.92,0.93-5.89,2.05-8.98,3.02c-1.54,0.5-3.1,1.02-4.69,1.44c-1.58,0.44-3.16,0.91-4.77,1.28c-3.2,0.79-6.43,1.45-9.62,2.02 c-3.19,0.58-6.36,1-9.42,1.35c-6.14,0.69-11.9,0.9-16.84,0.86c-1.23-0.04-2.42-0.02-3.54-0.1c-1.12-0.08-2.19-0.14-3.19-0.23 c-1-0.11-1.93-0.21-2.79-0.31c-0.86-0.14-1.64-0.27-2.36-0.38c-0.71-0.12-1.34-0.3-1.88-0.43c-0.55-0.12-1-0.27-1.36-0.4 C88.04,353.17,87.66,353.03,87.66,353.03z" class="st8"/></g><g><path d="M159.9,341.79c0,0,1.32-0.5,3.64-1.38c2.33-0.84,5.63-2.12,9.67-3.46c2.02-0.67,4.21-1.38,6.54-2.09 c2.33-0.71,4.81-1.43,7.4-2.06c2.59-0.62,5.28-1.25,8.06-1.69c2.77-0.46,5.61-0.82,8.47-0.99c2.86-0.16,5.74-0.16,8.56,0.11 c2.82,0.27,5.58,0.74,8.17,1.53c2.58,0.79,5.03,1.76,7.17,3.03c0.55,0.28,1.07,0.61,1.57,0.95c0.5,0.33,1,0.64,1.48,0.98 c0.9,0.73,1.84,1.35,2.62,2.11c0.79,0.73,1.58,1.39,2.22,2.14c0.65,0.73,1.3,1.39,1.81,2.1c0.52,0.7,1.05,1.31,1.47,1.94 c0.41,0.63,0.79,1.2,1.14,1.72c0.69,1.03,1.1,1.93,1.43,2.5c0.32,0.58,0.49,0.89,0.49,0.89s-0.2-0.29-0.57-0.85 c-0.38-0.54-0.88-1.38-1.63-2.36c-0.37-0.49-0.79-1.03-1.24-1.62c-0.45-0.59-1.02-1.16-1.57-1.81 c-0.55-0.66-1.22-1.27-1.91-1.93c-0.66-0.69-1.45-1.31-2.25-1.99c-0.78-0.7-1.72-1.26-2.62-1.93c-0.47-0.3-0.97-0.58-1.47-0.88 c-0.49-0.3-1-0.6-1.55-0.85c-0.53-0.26-1.08-0.53-1.63-0.8c-0.57-0.23-1.14-0.46-1.72-0.69c-0.57-0.25-1.18-0.43-1.79-0.63 c-0.61-0.19-1.21-0.42-1.85-0.56c-2.5-0.73-5.18-1.08-7.9-1.34c-2.73-0.25-5.53-0.22-8.31-0.05c-2.79,0.14-5.58,0.47-8.3,0.91 c-2.73,0.42-5.4,0.95-7.98,1.52c-2.57,0.59-5.06,1.18-7.4,1.79c-2.35,0.61-4.56,1.23-6.59,1.81c-4.08,1.18-7.47,2.17-9.85,2.86 C161.26,341.41,159.9,341.79,159.9,341.79z" class="st8"/></g><g><path d="M111.42,361.06c0,0,0.5-0.03,1.44-0.09c0.94-0.07,2.31-0.17,4.06-0.29c3.5-0.26,8.49-0.77,14.46-1.48 c2.98-0.36,6.21-0.8,9.61-1.32c3.4-0.55,6.97-1.16,10.65-1.88c3.68-0.69,7.46-1.57,11.27-2.52c3.8-0.99,7.65-2.07,11.38-3.43 c1.87-0.65,3.78-1.35,5.65-2.03c1.9-0.64,3.79-1.33,5.7-1.89c3.78-1.22,7.62-2.11,11.35-2.78c3.74-0.71,7.45-0.87,10.94-0.79 c1.75,0.13,3.45,0.21,5.07,0.56c1.64,0.21,3.16,0.71,4.63,1.11c0.75,0.17,1.42,0.53,2.1,0.78c0.67,0.28,1.34,0.53,1.97,0.82 c1.2,0.7,2.38,1.3,3.41,1.97c1,0.73,1.93,1.41,2.79,2.04c0.8,0.71,1.51,1.38,2.16,1.98c0.32,0.3,0.63,0.58,0.92,0.85 c0.26,0.3,0.5,0.58,0.72,0.84c0.44,0.52,0.82,0.96,1.13,1.32c0.61,0.71,0.94,1.1,0.94,1.1s-0.35-0.36-1.01-1.03 c-0.33-0.34-0.73-0.75-1.21-1.24c-0.24-0.24-0.49-0.51-0.76-0.78c-0.3-0.25-0.61-0.52-0.95-0.8c-0.67-0.56-1.4-1.19-2.22-1.85 c-0.88-0.58-1.82-1.2-2.84-1.87c-1.05-0.6-2.22-1.14-3.42-1.76c-0.63-0.24-1.28-0.48-1.95-0.73c-0.67-0.23-1.33-0.56-2.06-0.7 c-1.44-0.35-2.92-0.79-4.52-0.95c-1.57-0.29-3.23-0.32-4.93-0.4c-3.4,0.02-6.98,0.3-10.64,1.02c-3.65,0.7-7.39,1.67-11.13,2.87 c-1.88,0.56-3.73,1.25-5.61,1.89c-1.88,0.7-3.74,1.39-5.65,2.07c-3.81,1.37-7.71,2.44-11.55,3.42c-1.93,0.46-3.84,0.93-5.75,1.3 c-1.9,0.41-3.79,0.76-5.65,1.09c-3.71,0.69-7.33,1.18-10.75,1.63c-3.43,0.42-6.68,0.77-9.68,1.04c-6,0.56-11.03,0.73-14.54,0.85 c-1.76,0.05-3.14,0.06-4.08,0.05C111.92,361.06,111.42,361.06,111.42,361.06z" class="st8"/></g><rect width="172.43" height="2.89" x="62.61" y="363.59" class="st9"/><g><path d="M179.59,346.8c0,0,0.52-0.28,1.44-0.77c0.46-0.25,1.03-0.51,1.69-0.81c0.66-0.32,1.41-0.64,2.25-0.95 c0.83-0.34,1.75-0.65,2.72-0.98c0.97-0.35,2.01-0.63,3.09-0.93c1.09-0.26,2.21-0.56,3.36-0.79c1.15-0.24,2.32-0.47,3.51-0.64 c1.18-0.2,2.37-0.28,3.54-0.41c1.18-0.06,2.33-0.18,3.45-0.17c1.12-0.05,2.21,0.01,3.23,0.07c1.03,0.05,1.99,0.2,2.88,0.29 c0.88,0.17,1.7,0.28,2.4,0.48c0.7,0.21,1.32,0.34,1.81,0.53c0.97,0.39,1.52,0.61,1.52,0.61s-0.57-0.16-1.57-0.45 c-0.5-0.14-1.12-0.23-1.83-0.38c-0.71-0.14-1.52-0.18-2.39-0.31c-0.88-0.05-1.84-0.14-2.85-0.14c-1.01-0.01-2.08,0-3.19,0.05 c-1.11,0.01-2.24,0.14-3.4,0.22c-1.15,0.15-2.33,0.25-3.49,0.46c-1.17,0.15-2.33,0.36-3.47,0.58c-1.14,0.2-2.25,0.48-3.34,0.72 c-1.06,0.3-2.12,0.51-3.09,0.81c-0.98,0.28-1.9,0.54-2.74,0.84c-0.84,0.27-1.61,0.53-2.29,0.79c-0.68,0.25-1.27,0.46-1.75,0.67 C180.14,346.57,179.59,346.8,179.59,346.8z" class="st8"/></g></g><g><polygon points="264.96 340.33 315.26 340.04 424.04 357.97 437.39 363.6 264.96 363.6" class="st3"/><radialGradient id="SVGID_6_" cx="442.946" cy="343.881" r="104.629" gradientTransform="matrix(-1 0 0 1 780.8882 0)" gradientUnits="userSpaceOnUse"><stop offset="0" style="stop-color:#fffdf0"/><stop offset="1" style="stop-color:#f3edc9"/></radialGradient><path d="M250.33,351.4c4.24-19.76,32.59-40.39,73.44-23.87c40.85,16.52,65.16,20.36,91.78,20.36 c6.42,6.74,16.09,14.52,16.09,14.52s-64.86,2.14-94.1-4.59c-35.91-8.26-56-20.2-71.61,5.05c-7.08-4.59-16.07-4.59-16.07-4.59 S249.43,355.61,250.33,351.4z" class="st10"/><path d="M415.56,349.85c-26.62,0-50.93-3.84-91.78-20.36c-40.85-16.52-69.2,4.11-73.44,23.87 c-0.34,1.59-0.49,2.96-0.54,4.05c-0.06-1.11-0.05-3.22,0.54-6c4.24-19.76,32.59-40.39,73.44-23.87 c40.85,16.52,65.16,20.36,91.78,20.36c6.42,6.74,16.09,14.52,16.09,14.52S420.04,354.55,415.56,349.85z" class="st7"/><g><path d="M412.34,353.03c0,0-0.39,0.14-1.11,0.39c-0.36,0.14-0.81,0.29-1.36,0.4c-0.54,0.13-1.17,0.3-1.88,0.43 c-0.71,0.12-1.5,0.24-2.36,0.38c-0.86,0.1-1.8,0.2-2.79,0.31c-1,0.1-2.06,0.15-3.19,0.23c-1.12,0.08-2.31,0.06-3.54,0.1 c-4.94,0.04-10.7-0.16-16.84-0.86c-3.07-0.35-6.23-0.77-9.42-1.35c-3.19-0.56-6.42-1.23-9.62-2.02 c-1.61-0.36-3.19-0.84-4.77-1.28c-1.59-0.42-3.14-0.94-4.69-1.44c-3.09-0.97-6.06-2.09-8.98-3.02 c-2.91-0.95-5.73-1.87-8.42-2.71c-2.68-0.84-5.24-1.58-7.6-2.26c-4.73-1.32-8.68-2.39-11.47-3.03c-2.79-0.67-4.4-0.99-4.4-0.99 s1.63,0.17,4.46,0.67c2.82,0.51,6.87,1.25,11.65,2.43c2.39,0.59,4.98,1.25,7.7,1.99c2.72,0.74,5.59,1.54,8.53,2.47 c2.95,0.89,5.96,1.92,9.03,2.88c1.53,0.48,3.06,0.99,4.64,1.39c1.57,0.43,3.13,0.88,4.72,1.23c3.16,0.8,6.35,1.47,9.51,2.05 c3.16,0.58,6.28,1.09,9.31,1.48c6.07,0.79,11.77,1.28,16.66,1.39c2.45,0.05,4.69,0.05,6.68-0.01c0.99-0.05,1.92-0.1,2.78-0.14 c0.86-0.09,1.64-0.17,2.35-0.24c1.4-0.23,2.53-0.35,3.26-0.59C411.95,353.14,412.34,353.03,412.34,353.03z" class="st8"/></g><g><path d="M340.1,341.79c0,0-1.36-0.39-3.75-1.06c-2.38-0.69-5.77-1.67-9.85-2.86c-2.04-0.59-4.25-1.21-6.59-1.81 c-2.35-0.61-4.83-1.2-7.4-1.79c-2.58-0.57-5.25-1.1-7.98-1.52c-2.73-0.43-5.51-0.77-8.3-0.91c-2.79-0.17-5.59-0.2-8.31,0.05 c-2.72,0.26-5.4,0.61-7.9,1.34c-0.64,0.14-1.24,0.37-1.85,0.56c-0.6,0.2-1.21,0.38-1.79,0.63c-0.58,0.23-1.16,0.46-1.72,0.69 c-0.55,0.27-1.09,0.54-1.63,0.8c-0.54,0.25-1.05,0.55-1.55,0.85c-0.5,0.3-1,0.58-1.47,0.88c-0.9,0.67-1.84,1.24-2.62,1.93 c-0.8,0.68-1.59,1.3-2.25,1.99c-0.69,0.67-1.36,1.27-1.91,1.93c-0.56,0.65-1.12,1.22-1.57,1.81c-0.45,0.59-0.86,1.13-1.24,1.62 c-0.75,0.98-1.25,1.82-1.63,2.36c-0.37,0.55-0.57,0.85-0.57,0.85s0.17-0.31,0.49-0.89c0.34-0.57,0.74-1.47,1.43-2.5 c0.34-0.52,0.72-1.09,1.14-1.72c0.41-0.63,0.94-1.24,1.47-1.94c0.51-0.71,1.16-1.37,1.81-2.1c0.63-0.75,1.43-1.41,2.22-2.14 c0.77-0.75,1.72-1.37,2.62-2.11c0.48-0.33,0.98-0.65,1.48-0.98c0.5-0.34,1.01-0.67,1.57-0.95c2.13-1.27,4.58-2.24,7.17-3.03 c2.59-0.8,5.36-1.27,8.17-1.53c2.82-0.28,5.7-0.27,8.56-0.11c2.86,0.16,5.7,0.53,8.47,0.99c2.78,0.44,5.46,1.07,8.06,1.69 c2.59,0.62,5.06,1.35,7.4,2.06c2.33,0.71,4.52,1.42,6.54,2.09c4.03,1.34,7.34,2.62,9.67,3.46 C338.77,341.29,340.1,341.79,340.1,341.79z" class="st8"/></g><g><path d="M388.58,361.06c0,0-0.5,0-1.44,0c-0.94,0-2.32-0.01-4.08-0.05c-3.51-0.12-8.53-0.3-14.54-0.85 c-3-0.27-6.25-0.63-9.68-1.04c-3.43-0.45-7.04-0.94-10.75-1.63c-1.86-0.33-3.74-0.68-5.65-1.09c-1.91-0.37-3.82-0.84-5.75-1.3 c-3.85-0.98-7.74-2.05-11.55-3.42c-1.92-0.67-3.77-1.37-5.65-2.07c-1.88-0.64-3.73-1.33-5.61-1.89 c-3.74-1.21-7.47-2.17-11.13-2.87c-3.65-0.73-7.24-1-10.64-1.02c-1.7,0.08-3.35,0.11-4.93,0.4c-1.6,0.16-3.08,0.59-4.52,0.95 c-0.73,0.14-1.39,0.47-2.06,0.7c-0.66,0.25-1.31,0.49-1.95,0.73c-1.2,0.62-2.38,1.16-3.42,1.76c-1.01,0.67-1.96,1.29-2.84,1.87 c-0.82,0.66-1.55,1.29-2.22,1.85c-0.33,0.28-0.65,0.55-0.95,0.8c-0.27,0.28-0.53,0.54-0.76,0.78c-0.48,0.49-0.88,0.9-1.21,1.24 c-0.66,0.67-1.01,1.03-1.01,1.03s0.33-0.38,0.94-1.1c0.31-0.36,0.68-0.8,1.13-1.32c0.22-0.26,0.46-0.54,0.72-0.84 c0.29-0.27,0.59-0.55,0.92-0.85c0.65-0.59,1.36-1.27,2.16-1.98c0.86-0.63,1.79-1.31,2.79-2.04c1.04-0.67,2.21-1.27,3.41-1.97 c0.63-0.29,1.3-0.54,1.97-0.82c0.68-0.25,1.35-0.61,2.1-0.78c1.47-0.41,2.99-0.9,4.63-1.11c1.62-0.35,3.32-0.43,5.07-0.56 c3.49-0.08,7.2,0.08,10.94,0.79c3.74,0.67,7.57,1.56,11.35,2.78c1.91,0.56,3.8,1.25,5.7,1.89c1.87,0.68,3.78,1.39,5.65,2.03 c3.74,1.36,7.58,2.45,11.38,3.43c3.81,0.95,7.59,1.82,11.27,2.52c3.68,0.72,7.25,1.33,10.65,1.88c3.4,0.51,6.63,0.96,9.61,1.32 c5.97,0.71,10.96,1.22,14.46,1.48c1.75,0.13,3.13,0.22,4.06,0.29C388.08,361.03,388.58,361.06,388.58,361.06z" class="st8"/></g><rect width="172.43" height="2.89" x="264.96" y="363.59" class="st9" transform="matrix(-1 -1.224647e-16 1.224647e-16 -1 702.3504 730.0646)"/><g><path d="M320.41,346.8c0,0-0.55-0.23-1.51-0.62c-0.47-0.21-1.07-0.43-1.75-0.67c-0.67-0.26-1.44-0.52-2.29-0.79 c-0.84-0.29-1.76-0.56-2.74-0.84c-0.97-0.3-2.02-0.51-3.09-0.81c-1.08-0.24-2.19-0.52-3.34-0.72c-1.14-0.22-2.3-0.42-3.47-0.58 c-1.16-0.21-2.34-0.31-3.49-0.46c-1.16-0.08-2.3-0.21-3.4-0.22c-1.1-0.05-2.17-0.06-3.19-0.05c-1.01,0-1.97,0.09-2.85,0.14 c-0.87,0.13-1.69,0.18-2.39,0.31c-0.7,0.15-1.33,0.23-1.83,0.38c-1,0.29-1.57,0.45-1.57,0.45s0.55-0.22,1.52-0.61 c0.49-0.19,1.11-0.32,1.81-0.53c0.7-0.2,1.52-0.32,2.4-0.48c0.89-0.09,1.86-0.24,2.88-0.29c1.03-0.06,2.11-0.12,3.23-0.07 c1.12-0.01,2.28,0.11,3.45,0.17c1.17,0.13,2.36,0.21,3.54,0.41c1.18,0.17,2.36,0.4,3.51,0.64c1.15,0.23,2.27,0.53,3.36,0.79 c1.08,0.31,2.12,0.58,3.09,0.93c0.97,0.33,1.89,0.64,2.72,0.98c0.84,0.31,1.59,0.64,2.25,0.95c0.66,0.3,1.24,0.56,1.69,0.81 C319.88,346.52,320.41,346.8,320.41,346.8z" class="st8"/></g></g><path d="M233.04,364.35c2.04-2.51,20.84-11.21,34.66,0" class="st11"/><path d="M233.04,365.67c2.04,1.15,20.84,5.13,34.66,0" class="st12"/><radialGradient id="SVGID_7_" cx="221.313" cy="299.377" r="43.681" gradientUnits="userSpaceOnUse"><stop offset="0" style="stop-color:#fffdf0"/><stop offset="1" style="stop-color:#f3edc9"/></radialGradient><path d="M251.33,353.37l-2-0.03c0.23-18.33-5.6-41.03-15.58-60.73c-11.14-21.99-26.23-38.12-42.46-45.4l0.82-1.83 c16.65,7.47,32.08,23.92,43.43,46.32C245.66,311.68,251.56,334.73,251.33,353.37z" class="st13"/><radialGradient id="SVGID_8_" cx="284.18" cy="306.229" r="41.48" gradientUnits="userSpaceOnUse"><stop offset="0" style="stop-color:#fffdf0"/><stop offset="1" style="stop-color:#f3edc9"/></radialGradient><path d="M249.33,353.39c-0.97-25.05,18.31-78.44,69.14-94.32l0.6,1.91c-49.79,15.56-68.69,67.82-67.73,92.34 L249.33,353.39z" class="st14"/></g><g><g><path d="M249.9,193.21c0,2.28-1.85,4.12-4.12,4.12c-2.28,0-4.12-1.85-4.12-4.12c0-2.28,1.85-4.12,4.12-4.12 C248.06,189.09,249.9,190.93,249.9,193.21z" class="st15"/><path d="M346.23,135.52c0,1.99-1.61,3.61-3.61,3.61c-1.99,0-3.61-1.61-3.61-3.61c0-1.99,1.61-3.61,3.61-3.61 C344.62,131.91,346.23,133.53,346.23,135.52z" class="st15"/><circle cx="412.17" cy="221.03" r="3.61" class="st15"/><path d="M365.8,305.51c0,1.14-0.92,2.06-2.06,2.06c-1.14,0-2.06-0.92-2.06-2.06s0.92-2.06,2.06-2.06 C364.88,303.45,365.8,304.37,365.8,305.51z" class="st15"/><path d="M145.33,150.97c0,3.41-2.77,6.18-6.18,6.18s-6.18-2.77-6.18-6.18c0-3.41,2.77-6.18,6.18-6.18 S145.33,147.56,145.33,150.97z" class="st15"/><path d="M100,227.72c0,1.14-0.92,2.06-2.06,2.06c-1.14,0-2.06-0.92-2.06-2.06c0-1.14,0.92-2.06,2.06-2.06 C99.08,225.66,100,226.59,100,227.72z" class="st15"/><path d="M77.85,314.78c0,1.14-0.92,2.06-2.06,2.06c-1.14,0-2.06-0.92-2.06-2.06c0-1.14,0.92-2.06,2.06-2.06 C76.93,312.72,77.85,313.64,77.85,314.78z" class="st15"/></g><g><circle cx="294.83" cy="162.11" r="34.47" class="st15"/><ellipse cx="294.83" cy="162.11" class="st16" rx="37.54" ry="37.54" transform="matrix(0.2261 -0.9741 0.9741 0.2261 70.2551 412.6447)"/><g><path d="M283.33,188.03l-15.2,3.63c-0.99,0.24-1.81-0.57-1.59-1.56l3.35-15.27L283.33,188.03z" class="st17"/><linearGradient id="SVGID_9_" x1="144.756" x2="151.265" y1="219.492" y2="210.623" gradientTransform="matrix(-0.7135 -0.7006 0.7006 -0.7135 227.126 439.781)" gradientUnits="userSpaceOnUse"><stop offset="0" style="stop-color:#1d1d1b"/><stop offset="1" style="stop-color:#1d1d1b;stop-opacity:0"/></linearGradient><path d="M270.3,191.14l13.03-3.11l-13.45-13.2l-1.09,5C273.3,182.01,273.78,187.5,270.3,191.14z" class="st18"/><path d="M310.53,130.93c0.72-0.73,1.78-1,2.76-0.7c1.82,0.57,4.91,1.95,8.24,5.22c3.32,3.26,4.71,6.27,5.29,8.05 c0.31,0.97,0.06,2.02-0.65,2.75l-41.12,41.88c-0.47,0.48-1.18,0.65-1.81,0.44c-1.69-0.56-5.12-2.01-8.47-5.3 c-3.37-3.31-5.03-6.88-5.7-8.63c-0.25-0.65-0.09-1.38,0.39-1.87L310.53,130.93z" class="st17"/><path d="M314.43,142.68c4.43,4.35,6,7.82,6.44,8.97l3.05-3.11c-0.44-1.15-2.01-4.62-6.44-8.97 c-4.45-4.37-8.02-5.94-9.19-6.37l-3.05,3.11C306.41,136.74,309.98,138.31,314.43,142.68z" class="st19"/><path d="M307.55,133.41c0,0,4.14,1.15,9.6,6.5c5.46,5.36,6.58,9.38,6.58,9.38l-35.07,35.72c0,0-4.3-1.77-9.16-6.55 c-4.86-4.77-7.01-9.33-7.01-9.33L307.55,133.41z" class="st20"/><path d="M290.02,183.62c0,0-4.3-1.77-9.16-6.55c-4.86-4.77-7.01-9.33-7.01-9.33c0.42-0.43,1.04-1.06,1.04-1.06 s2.15,4.56,7.01,9.33c4.86,4.77,9.16,6.55,9.16,6.55L290.02,183.62z" class="st21"/><path d="M291.85,181.75c0,0-4.3-1.77-9.16-6.55c-4.86-4.77-7.01-9.33-7.01-9.33c0.36-0.37,1.42-1.45,1.42-1.45 s2.15,4.56,7.01,9.33c4.86,4.77,9.16,6.55,9.16,6.55L291.85,181.75z" class="st21"/><path d="M321.81,151.24c0,0-1.85-4.27-6.71-9.04c-4.86-4.77-9.46-6.84-9.46-6.84c-0.08-0.08-1.04,1.06-1.04,1.06 s4.6,2.07,9.46,6.84c4.86,4.77,6.71,9.04,6.71,9.04L321.81,151.24z" class="st21"/><path d="M319.97,153.11c0,0-1.85-4.27-6.71-9.04c-4.86-4.77-9.46-6.84-9.46-6.84c-0.35,0.35-1.42,1.45-1.42,1.45 s4.6,2.07,9.46,6.84c4.86,4.77,6.71,9.04,6.71,9.04L319.97,153.11z" class="st21"/><path d="M283.23,188.58c0.64,0.21,1.34,0.04,1.81-0.44l3.24-3.3c0.24,0.11,0.38,0.17,0.38,0.17l35.07-35.72 c0,0-0.04-0.14-0.14-0.41l2.58-2.62c0.71-0.72,0.97-1.78,0.65-2.75c-0.3-0.93-0.83-2.21-1.74-3.67l-45.96,46.82 C280.81,187.68,282.29,188.26,283.23,188.58z" class="st22"/><path d="M272.67,169.49l-3.22,3.28c-0.48,0.49-0.64,1.22-0.39,1.87c0.23,0.59,0.57,1.39,1.05,2.32L315.23,131 c-0.74-0.34-1.4-0.59-1.95-0.76c-0.98-0.31-2.04-0.03-2.76,0.7l-2.56,2.61c-0.27-0.1-0.41-0.14-0.41-0.14l-35.07,35.72 C272.48,169.13,272.54,169.26,272.67,169.49z" class="st23"/><path d="M266.72,190.2l2.12-9.36C268.84,180.84,269.02,187.57,266.72,190.2z" class="st24"/></g></g><g><circle cx="207.18" cy="162.11" r="34.47" class="st15"/><circle cx="207.18" cy="162.11" r="37.67" class="st25"/><g><ellipse cx="207.7" cy="161.68" class="st26" rx="19.19" ry="10.99" transform="matrix(0.038 -0.9993 0.9993 0.038 38.2523 363.0936)"/><ellipse cx="207.7" cy="161.68" class="st26" rx="21.8" ry="9.67" transform="matrix(0.8344 -0.5512 0.5512 0.8344 -54.7167 141.2681)"/><path d="M215.71,155.74c9.04,7.84,12.78,16.86,8.36,20.15c-4.42,3.28-15.33-0.42-24.37-8.26 c-9.04-7.84-12.78-16.86-8.36-20.15C195.76,144.2,206.67,147.89,215.71,155.74z" class="st26"/><path d="M211.69,161.83c-0.08,2.12-1.93,3.77-4.13,3.68c-2.2-0.08-3.92-1.87-3.84-3.99 c0.08-2.12,1.93-3.77,4.13-3.68C210.05,157.93,211.77,159.71,211.69,161.83z" class="st27"/></g></g><g><ellipse cx="363.2" cy="205.93" class="st15" rx="34.47" ry="34.47" transform="matrix(0.9173 -0.3983 0.3983 0.9173 -51.9699 161.6982)"/><ellipse cx="363.2" cy="205.93" class="st16" rx="38.31" ry="38.31" transform="matrix(0.9275 -0.3739 0.3739 0.9275 -50.6547 150.7332)"/><g><path d="M347.82,231.4l20.39,4.51c0,0-1.17-7.16-9.01-8.99C352.9,225.46,347.82,231.4,347.82,231.4z" class="st28"/><path d="M359.2,226.92c-0.55-0.13-1.09-0.18-1.62-0.21c5.06,2.44,4.83,5.61,3.52,7.62l7.11,1.57 C368.2,235.91,367.04,228.75,359.2,226.92z" class="st29"/><path d="M343.1,217.02c6.31,8.53,17.63,12.41,28.2,8.8c13.08-4.46,20.08-18.68,15.62-31.76 c-3.25-9.53-11.68-15.83-21.07-16.82" class="st30"/><path d="M381.93,195.6c3.58,10.52-2.04,21.95-12.55,25.53c-10.52,3.58-21.95-2.04-25.53-12.55 c-3.58-10.52,2.04-21.95,12.55-25.53C366.92,179.46,378.35,185.08,381.93,195.6z" class="st31"/><path d="M375.92,208.43c0.2-0.37,0.38-0.72,0.55-1.06c1.32-2.69,2.24-5.53,2.76-8.34l3.73,2.14 c-0.04-0.92-0.16-1.84-0.33-2.76l-3.06-1.76c0.21-2.03,0.18-4.01-0.07-5.85c-0.96-1.41-2.07-2.68-3.33-3.79 c1.05,2.34,1.47,5.27,1.27,8.42l-6.72-3.87l3.43-6.1c-0.62-0.42-1.25-0.8-1.91-1.15l-3.45,6.14l-7.84-4.51 c2.69-1.35,6.01-2.24,10.05-2.23c-1.84-0.81-3.79-1.35-5.81-1.59c-2.3,0.53-4.47,1.38-6.46,2.54l-2.63-1.51 c-0.88,0.32-1.72,0.7-2.53,1.12l3.07,1.76c-2.6,1.92-4.82,4.43-6.56,7.45l-4.07-2.35c-0.41,0.62-0.78,1.27-1.12,1.93l4.16,2.4 c-1.43,3.07-2.28,6.38-2.55,9.69l-3.72-2.14c0.04,0.92,0.16,1.84,0.33,2.77l3.29,1.89c0.02,2.57,0.41,5.08,1.14,7.43 c1.19,1.4,2.56,2.61,4.06,3.63c-1.74-2.81-2.73-6.2-2.94-9.76l7.35,4.23l-3.45,6.15c0.64,0.38,1.3,0.72,1.98,1.03l3.41-6.06 l6.14,3.54c-2.28,1.37-4.97,2.48-8.12,3.12c1.44,0.53,2.94,0.87,4.47,1.06c2.19-0.79,4.13-1.79,5.84-2.93l3.33,1.92 c0.88-0.31,1.72-0.7,2.53-1.12l-3.88-2.23c2.91-2.32,5.03-4.97,6.53-7.32l4.85,2.81c0.41-0.62,0.79-1.26,1.13-1.92 L375.92,208.43z M358.75,187.24l8.95,5.15l-4.78,8.51l-10.9-6.31C353.29,192.38,355.43,189.5,358.75,187.24z M357.11,211.25 l-8.46-4.87c0.14-3.32,0.92-6.69,2.35-9.8l10.83,6.27L357.11,211.25z M366.17,216.46l-7.12-4.1l4.72-8.4l9.1,5.27 C371.36,211.58,369.19,214.22,366.17,216.46z M374.47,206.38c-0.15,0.3-0.31,0.61-0.48,0.93l-9.14-5.29l4.78-8.51l7.54,4.34 C376.74,200.69,375.83,203.62,374.47,206.38z" class="st32"/><path d="M381.93,195.6c-0.42-1.23-0.95-2.38-1.57-3.47c1.67,9.59-3.81,19.23-13.31,22.47 c-9.29,3.17-19.28-0.86-23.96-9.09c0.18,1.02,0.41,2.04,0.76,3.06c3.58,10.52,15.01,16.14,25.53,12.55 C379.89,217.54,385.51,206.11,381.93,195.6z" class="st32"/></g></g><g><ellipse cx="401.76" cy="272.55" class="st15" rx="34.47" ry="34.47" transform="matrix(0.2264 -0.974 0.974 0.2264 45.3307 602.1679)"/><ellipse cx="401.76" cy="272.55" class="st33" rx="36.77" ry="36.77" transform="matrix(0.2262 -0.9741 0.9741 0.2262 45.4054 602.2487)"/><g><polygon points="425.64 301.13 396.66 288.61 406.63 257.06 437.63 263.2" class="st34"/><polygon points="365.29 282.21 396.64 288.61 406.62 257.05 377.28 244.28" class="st34"/><polyline points="381.05 247.47 378.25 246.21 367.46 281.12 370.29 281.62" class="st35"/><polygon points="372.94 282.45 370.11 281.95 380.91 247.04 383.71 248.3" class="st36"/><polyline points="432.89 263.93 435.91 264.49 424.9 299.33 422.29 298.13" class="st35"/><polygon points="419.63 297.3 422.25 298.5 433.26 263.66 430.23 263.1" class="st36"/><polygon points="419.55 297.66 397.06 287.33 406.22 258.34 430.56 262.81" class="st37"/><path d="M409.74,258.99l-3.52-0.65l-9.16,28.99l22.49,10.33l1.29-4.09C404.35,292.44,402.45,276.85,409.74,258.99z" class="st38"/><line x1="410.64" x2="423.26" y1="264.2" y2="266.63" class="st39"/><line x1="409.3" x2="421.74" y1="268.45" y2="271.44" class="st39"/><line x1="407.96" x2="420.22" y1="272.69" y2="276.26" class="st39"/><line x1="406.61" x2="418.91" y1="276.94" y2="280.41" class="st39"/><line x1="405.27" x2="417.42" y1="281.18" y2="285.13" class="st39"/><line x1="403.93" x2="415.84" y1="285.43" y2="290.13" class="st39"/><polygon points="372.71 282.85 397.05 287.33 406.21 258.34 383.72 248.01" class="st37"/><line x1="399.23" x2="387.5" y1="260.59" y2="255.33" class="st39"/><line x1="397.89" x2="385.98" y1="264.84" y2="260.14" class="st39"/><line x1="396.54" x2="384.46" y1="269.09" y2="264.96" class="st39"/><line x1="395.2" x2="383.15" y1="273.33" y2="269.11" class="st39"/><line x1="393.86" x2="381.66" y1="277.58" y2="273.83" class="st39"/><line x1="392.52" x2="380.08" y1="281.83" y2="278.83" class="st39"/><path d="M397.05,287.33l9.16-28.99l-3.31-1.52c-1.77,15.36-11.8,35.15-27.9,18.76l-2.3,7.27L397.05,287.33z" class="st38"/><g><path d="M406.21,258.34c0,0-0.09,0.47-0.29,1.28c-0.2,0.81-0.46,1.97-0.83,3.35c-0.72,2.76-1.77,6.41-2.91,10.04 c-1.15,3.62-2.38,7.22-3.38,9.89c-0.49,1.34-0.95,2.44-1.25,3.22c-0.31,0.77-0.5,1.21-0.5,1.21s0.09-0.47,0.29-1.28 c0.2-0.81,0.46-1.97,0.83-3.35c0.72-2.76,1.77-6.41,2.91-10.04c1.15-3.62,2.39-7.22,3.39-9.89c0.49-1.34,0.95-2.44,1.25-3.22 C406.02,258.78,406.21,258.34,406.21,258.34z" class="st35"/></g><polygon points="402.69 256.73 400.99 262.32 402.31 261.52 403.16 262.87 404.66 257.59" class="st40"/></g></g><g><ellipse cx="138.81" cy="205.93" class="st15" rx="34.47" ry="34.47" transform="matrix(0.9724 -0.2332 0.2332 0.9724 -44.1942 38.0465)"/><ellipse cx="138.81" cy="205.93" class="st41" rx="37.25" ry="37.25" transform="matrix(0.9724 -0.2335 0.2335 0.9724 -44.243 38.0996)"/><g><polygon points="150.02 227.22 110.57 183.04 113.45 178.15 117.59 174.46 122.15 172.7 161.6 216.88" class="st42"/><path d="M117.2,174.81l-3.74,3.34l-2.88,4.89l39.45,44.18l5.42-4.84C138.04,210.97,119.59,188.38,117.2,174.81z" class="st43"/><g><polygon points="158.57 219.59 118.1 174.26 117.59 174.46 117.15 174.85 157.75 220.32" class="st44"/><polygon points="113.45 178.15 113.09 178.78 153.54 224.08 154.36 223.35 113.76 177.88" class="st44"/></g><path d="M150.02,227.22l14.81,5.9c0.51,0.2,1.04-0.26,0.9-0.8l-4.13-15.45l-4.23,2.01l-4.33,3.86L150.02,227.22z" class="st45"/><path d="M165.66,232.05c-4.83-2.61-9-6.81-11.42-10.36l-1.2,1.07l-3.02,4.46l14.81,5.9c0.51,0.2,1.04-0.26,0.9-0.8 L165.66,232.05z" class="st46"/><path d="M165.73,232.33l-1.43-5.34c-1.93,0.21-3.73,1.61-4.99,3.94l5.52,2.2 C165.35,233.33,165.87,232.86,165.73,232.33z" class="st47"/></g></g><g><ellipse cx="100.25" cy="272.55" class="st15" rx="34.47" ry="34.47" transform="matrix(0.9875 -0.1577 0.1577 0.9875 -41.7213 19.2163)"/><circle cx="100.25" cy="272.55" r="37.84" class="st16"/><g><g><path d="M104.06,263.18l-3.26-15.3l-9.07,1.93l3.26,15.3l-4.75,32.87c-0.31,2.14,1.61,3.93,3.72,3.48l25.86-5.51 c2.11-0.45,3.13-2.86,1.98-4.69L104.06,263.18z" class="st31"/><path d="M101.23,242.34l-12.15,2.59c-0.68,0.14-1.11,0.81-0.96,1.48l0.59,2.78c0.14,0.68,0.81,1.11,1.48,0.96 l12.15-2.59c0.68-0.14,1.11-0.81,0.96-1.48l-0.59-2.78C102.57,242.62,101.9,242.19,101.23,242.34z" class="st31"/><path d="M104.41,267.13l-8.12,1.73l-3.76,29.13c-0.11,0.82,0.63,1.49,1.43,1.32l24.98-5.32 c0.81-0.17,1.2-1.09,0.77-1.79L104.41,267.13z" class="st48"/><path d="M102.63,280.5c0.13,0.61-0.26,1.21-0.87,1.34c-0.61,0.13-1.21-0.26-1.34-0.87 c-0.13-0.61,0.26-1.21,0.87-1.34C101.91,279.5,102.5,279.89,102.63,280.5z" class="st49"/><path d="M103.69,288.17c0.23,1.09-0.46,2.15-1.55,2.39c-1.09,0.23-2.15-0.46-2.39-1.55 c-0.23-1.09,0.46-2.15,1.55-2.39C102.39,286.39,103.46,287.08,103.69,288.17z" class="st50"/><path d="M109.22,283.62c0.16,0.74-0.31,1.47-1.05,1.62c-0.74,0.16-1.47-0.31-1.62-1.05 c-0.16-0.74,0.31-1.47,1.05-1.62C108.34,282.41,109.06,282.88,109.22,283.62z" class="st49"/><path d="M97.75,270.36c0.48-3.34,0.69-5.08,0.22-7.26c-0.46-2.18-2.24-12.3-2.24-12.3l5.43-1.16l-0.37-1.75 l-9.07,1.93l3.26,15.3l-4.75,32.87c-0.31,2.14,1.61,3.93,3.72,3.48l13.19-2.81C91.19,299.27,96.06,282.05,97.75,270.36z" class="st51"/></g><path d="M106.93,271.32c0,0,6.36,12.12,12.02,19.25C117.32,286.92,108.87,274.11,106.93,271.32z" class="st7"/></g></g></g></g></svg>