<?xml version="1.0" encoding="utf-8"?>
<!-- Generator: Adobe Illustrator 23.0.2, SVG Export Plug-In . SVG Version: 6.00 Build 0)  -->
<svg version="1.1" id="Layer_1" xmlns="http://www.w3.org/2000/svg" xmlns:xlink="http://www.w3.org/1999/xlink" x="0px" y="0px"
	 viewBox="0 0 250 250" style="enable-background:new 0 0 250 250;" xml:space="preserve">
<style type="text/css">
	.st0{opacity:0.38;}
	.st1{fill:#26FF2C;}
	.st2{fill:#993E3C;}
	.st3{fill:#F27F77;}
	.st4{fill:#D371AB;}
	.st5{fill:#F3DEBF;}
	.st6{fill:#FFA043;}
	.st7{fill:#E28633;}
	.st8{opacity:0.31;fill:#FFFFFF;}
	.st9{opacity:0.42;}
	.st10{fill:#FFFFFF;}
	.st11{opacity:0.22;}
	.st12{fill:#F7C684;}
	.st13{fill:#AA4A43;}
	.st14{fill:#AF4F4F;}
	.st15{fill:#893B38;}
	.st16{fill:#EA5450;}
	.st17{opacity:0.22;fill:#F27F77;}
	.st18{opacity:0.17;}
	.st19{fill:#BF609D;}
	.st20{fill:#874172;}
</style>
<g>
	<g>
		<g class="st0">
			<path class="st1" d="M47.88,60.17c2.58-1.75,7.78,3.99,9.17,5.52c3.06,3.39,5.32,7.69,6.3,12.17c3.47,4.04,6.83,8.2,10.05,12.47
				c-0.37-0.94-1.01-2.21-1.13-2.54c-0.46-1.28-0.94-2.58-1.28-3.9c-0.5-1.92-0.47-4.34-0.47-6.32c0-2.25,0.42-4.53,1.36-6.59
				c0.54-1.18,2.27-4.61,3.9-4.27c3.05,0.63,2.58,8.35,2.45,10.42c-0.31,4.93-2.01,9.51-4.36,13.82
				c3.83,5.13,7.45,10.42,10.75,15.87c-0.37-0.93-0.98-2.15-1.1-2.46c-0.46-1.28-0.94-2.58-1.28-3.9c-0.5-1.92-0.46-4.34-0.47-6.32
				c0-2.25,0.42-4.53,1.36-6.59c0.54-1.18,2.27-4.61,3.9-4.27c3.05,0.63,2.58,8.35,2.45,10.42c-0.31,4.96-2.03,9.56-4.4,13.89
				c2.96,4.95,5.67,10.03,8.04,15.23c-0.15-0.82-0.33-1.65-0.36-1.91c-0.14-1.35-0.3-2.73-0.32-4.09c-0.03-1.98,0.58-4.32,1.06-6.25
				c0.53-2.19,1.49-4.3,2.89-6.07c0.8-1.01,3.3-3.93,4.81-3.22c2.82,1.34,0.51,8.73-0.11,10.7c-1.45,4.63-4.12,8.61-7.35,12.18
				c2.33,5.25,4.32,10.62,5.92,16.1c0.2-3.05,0.64-6.09,1.77-8.92c0.83-2.09,2.06-4.06,3.69-5.62c0.93-0.9,3.81-3.44,5.2-2.53
				c2.61,1.71-0.69,8.72-1.58,10.59c-1.85,3.91-4.65,7.36-8.14,9.92c3.01,11.69,4.16,23.89,2.79,36.54c-0.1,0.9-1.5,0.83-1.41-0.07
				c1.7-15.72-0.52-30.73-5.4-44.93c-3.95,0.11-7.96,0.04-11.71-1.19c-2.14-0.7-4.18-1.82-5.83-3.35c-0.95-0.88-3.67-3.59-2.84-5.04
				c1.55-2.71,8.74,0.16,10.66,0.93c3.22,1.29,6.18,3.21,8.66,5.64c-1.74-4.66-3.76-9.23-6.02-13.7c-1.69,0.78-3.66,0.8-5.5,0.96
				c-2.33,0.2-4.68,0.2-6.98-0.21c-2.21-0.4-4.39-1.23-6.24-2.52c-1.06-0.74-4.12-3.06-3.5-4.61c1.16-2.89,8.68-1.03,10.69-0.53
				c2.49,0.62,4.89,1.6,7.1,2.9c1.09,0.64,2.05,1.49,3.15,2.1c0.14,0.08,0.28,0.15,0.43,0.21c-2.52-4.86-5.32-9.6-8.33-14.22
				c-1.44,1.09-3.28,1.57-4.98,2.15c-2.21,0.75-4.5,1.32-6.83,1.46c-2.25,0.14-4.55-0.14-6.66-0.96c-1.21-0.46-4.74-1.99-4.5-3.64
				c0.44-3.09,8.18-3.08,10.25-3.07c2.57,0.01,5.13,0.38,7.59,1.12c1.21,0.36,2.35,0.96,3.56,1.29c0.19,0.05,0.38,0.09,0.57,0.13
				c-3.39-5.11-7.04-10.07-10.86-14.88c-1.46,1.18-3.38,1.67-5.14,2.27c-2.21,0.75-4.5,1.32-6.83,1.46
				c-2.25,0.14-4.55-0.14-6.66-0.96c-1.21-0.46-4.74-1.99-4.5-3.64c0.44-3.09,8.18-3.08,10.25-3.07c2.57,0.01,5.13,0.38,7.59,1.12
				c1.21,0.36,2.35,0.96,3.56,1.29c0.21,0.06,0.41,0.1,0.62,0.14c-2.15-2.66-4.34-5.27-6.57-7.83c-3.13-1.49-6.24-3.03-8.77-5.49
				c-1.61-1.57-2.95-3.47-3.77-5.57C47.75,64.74,46.5,61.1,47.88,60.17z"/>
		</g>
		<g class="st0">
			<path class="st1" d="M11.81,120.09c0.81-2.14,6.37-0.89,7.85-0.55c3.28,0.75,6.45,2.38,8.94,4.67c3.79,0.97,7.58,2.05,11.32,3.26
				c-0.62-0.41-1.54-0.91-1.75-1.05c-0.82-0.58-1.66-1.16-2.42-1.8c-1.11-0.94-2.11-2.42-2.95-3.61c-0.95-1.35-1.66-2.91-1.97-4.54
				c-0.17-0.94-0.58-3.73,0.54-4.22c2.1-0.91,5.08,3.94,5.87,5.24c1.9,3.1,2.81,6.58,3.21,10.17c4.48,1.47,8.89,3.13,13.18,5.02
				c-0.62-0.4-1.5-0.88-1.7-1.02c-0.82-0.58-1.66-1.16-2.42-1.8c-1.11-0.94-2.11-2.42-2.95-3.61c-0.95-1.35-1.66-2.91-1.97-4.54
				c-0.17-0.94-0.58-3.73,0.54-4.22c2.1-0.91,5.08,3.94,5.87,5.24c1.91,3.12,2.82,6.62,3.22,10.22c3.88,1.73,7.65,3.65,11.28,5.77
				c-0.44-0.43-0.9-0.86-1.02-1c-0.66-0.76-1.33-1.52-1.92-2.33c-0.86-1.18-1.48-2.85-2.01-4.21c-0.6-1.54-0.92-3.22-0.83-4.88
				c0.05-0.95,0.33-3.76,1.54-3.97c2.26-0.38,3.99,5.04,4.45,6.49c1.08,3.4,1.15,6.93,0.72,10.44c3.62,2.17,7.09,4.57,10.37,7.2
				c-1.17-1.92-2.18-3.94-2.7-6.12c-0.38-1.61-0.47-3.32-0.15-4.95c0.18-0.93,0.84-3.68,2.07-3.72c2.29-0.07,3.27,5.54,3.52,7.04
				c0.54,3.13,0.31,6.4-0.71,9.41c6.75,5.77,12.6,12.63,17.12,20.83c0.32,0.58-0.56,1.13-0.88,0.55
				c-5.62-10.19-13.3-18.29-22.23-24.77c-2.33,1.73-4.78,3.39-7.55,4.23c-1.58,0.48-3.28,0.67-4.93,0.45
				c-0.94-0.13-3.73-0.61-3.84-1.84c-0.21-2.28,5.33-3.59,6.81-3.94c2.48-0.58,5.08-0.68,7.59-0.26c-3.02-2.07-6.17-3.97-9.41-5.71
				c-0.69,1.19-1.86,2.03-2.91,2.91c-1.32,1.1-2.73,2.1-4.3,2.82c-1.5,0.69-3.16,1.11-4.82,1.12c-0.95,0-3.78-0.1-4.05-1.29
				c-0.52-2.23,4.79-4.29,6.21-4.84c1.76-0.68,3.62-1.1,5.5-1.25c0.93-0.07,1.87,0.03,2.79-0.07c0.12-0.01,0.23-0.03,0.35-0.05
				c-3.57-1.86-7.26-3.53-11.02-5.05c-0.41,1.27-1.31,2.34-2.09,3.4c-1.01,1.39-2.15,2.69-3.5,3.77c-1.29,1.03-2.8,1.84-4.41,2.24
				c-0.92,0.23-3.69,0.81-4.25-0.29c-1.04-2.04,3.63-5.31,4.88-6.18c1.55-1.08,3.25-1.94,5.04-2.53c0.88-0.29,1.82-0.42,2.69-0.73
				c0.14-0.05,0.27-0.11,0.4-0.16c-4.2-1.64-8.49-3.09-12.83-4.37c-0.38,1.33-1.33,2.44-2.14,3.54c-1.01,1.39-2.15,2.69-3.5,3.77
				c-1.29,1.03-2.8,1.84-4.41,2.24c-0.92,0.23-3.69,0.81-4.25-0.29c-1.04-2.04,3.63-5.31,4.88-6.18c1.55-1.08,3.25-1.94,5.04-2.53
				c0.88-0.29,1.82-0.42,2.69-0.73c0.15-0.05,0.29-0.11,0.43-0.18c-2.41-0.69-4.84-1.34-7.27-1.94c-2.52,0.42-5.03,0.81-7.6,0.4
				c-1.63-0.26-3.24-0.84-4.62-1.76C13.67,122.9,11.38,121.24,11.81,120.09z"/>
		</g>
	</g>
	<g>
		<g class="st0">
			<path class="st1" d="M218.13,66.02c-2.07-2.33-8.53,1.94-10.25,3.08c-3.81,2.52-7.06,6.14-9.12,10.23
				c-4.36,3.05-8.65,6.25-12.82,9.59c0.59-0.82,1.53-1.9,1.72-2.18c0.76-1.13,1.55-2.27,2.21-3.46c0.96-1.74,1.53-4.09,2.02-6.01
				c0.56-2.18,0.72-4.5,0.32-6.72c-0.23-1.27-1.06-5.03-2.72-5.11c-3.11-0.15-4.56,7.46-4.95,9.49c-0.92,4.86-0.41,9.72,0.8,14.47
				c-4.98,4.02-9.8,8.26-14.34,12.72c0.59-0.81,1.48-1.83,1.67-2.11c0.76-1.13,1.55-2.27,2.21-3.46c0.96-1.74,1.53-4.09,2.02-6.01
				c0.56-2.18,0.72-4.5,0.32-6.72c-0.23-1.27-1.06-5.03-2.72-5.11c-3.11-0.15-4.56,7.46-4.95,9.49c-0.92,4.88-0.4,9.77,0.82,14.55
				c-4.1,4.06-7.97,8.31-11.57,12.76c0.35-0.76,0.73-1.52,0.82-1.76c0.47-1.28,0.96-2.57,1.32-3.88c0.52-1.92,0.5-4.33,0.52-6.32
				c0.02-2.25-0.38-4.54-1.3-6.6c-0.53-1.18-2.23-4.63-3.86-4.31c-3.06,0.6-2.65,8.33-2.54,10.4c0.26,4.84,1.86,9.36,4.11,13.62
				c-3.56,4.51-6.82,9.22-9.72,14.13c0.56-3.01,0.88-6.06,0.5-9.08c-0.28-2.23-1-4.44-2.19-6.36c-0.68-1.1-2.84-4.28-4.42-3.74
				c-2.95,1.01-1.49,8.62-1.09,10.65c0.82,4.24,2.68,8.29,5.43,11.62c-5.81,10.58-9.95,22.12-11.75,34.71
				c-0.13,0.9,1.25,1.17,1.38,0.28c2.24-15.65,8.12-29.65,16.36-42.19c3.8,1.08,7.71,2.01,11.64,1.75c2.25-0.15,4.5-0.72,6.48-1.8
				c1.14-0.62,4.44-2.57,4-4.18c-0.83-3.01-8.51-2.01-10.56-1.74c-3.44,0.45-6.78,1.58-9.78,3.32c2.84-4.09,5.93-8.01,9.22-11.79
				c1.45,1.18,3.35,1.69,5.09,2.3c2.2,0.77,4.48,1.36,6.82,1.52c2.24,0.16,4.55-0.1,6.67-0.89c1.21-0.45,4.75-1.94,4.53-3.6
				c-0.41-3.09-8.16-3.15-10.22-3.16c-2.57-0.02-5.13,0.34-7.6,1.05c-1.21,0.35-2.36,0.93-3.57,1.26c-0.16,0.04-0.31,0.07-0.47,0.1
				c3.65-4.08,7.53-7.98,11.59-11.72c1.13,1.41,2.79,2.34,4.29,3.32c1.96,1.27,4.03,2.39,6.26,3.11c2.14,0.69,4.45,0.99,6.69,0.72
				c1.28-0.15,5.08-0.75,5.26-2.41c0.34-3.1-7.17-5.01-9.17-5.51c-2.49-0.63-5.07-0.9-7.63-0.79c-1.26,0.05-2.51,0.34-3.77,0.37
				c-0.2,0-0.39-0.01-0.59-0.02c4.55-4.11,9.31-8.01,14.21-11.72c1.12,1.51,2.86,2.46,4.42,3.47c1.96,1.27,4.03,2.39,6.26,3.11
				c2.14,0.69,4.45,0.99,6.69,0.72c1.28-0.15,5.08-0.75,5.26-2.41c0.34-3.1-7.17-5.01-9.17-5.51c-2.49-0.63-5.07-0.9-7.63-0.79
				c-1.26,0.05-2.51,0.34-3.77,0.37c-0.21,0-0.42-0.01-0.63-0.02c2.74-2.04,5.51-4.03,8.31-5.96c3.41-0.67,6.79-1.39,9.85-3.15
				c1.95-1.12,3.72-2.63,5.03-4.46C217.12,70.48,219.23,67.26,218.13,66.02z"/>
		</g>
		<g class="st0">
			<path class="st1" d="M238.23,133c-0.26-2.28-5.95-2.44-7.47-2.48c-3.36-0.09-6.84,0.71-9.81,2.31c-3.91,0-7.85,0.11-11.77,0.36
				c0.7-0.24,1.72-0.5,1.96-0.59c0.93-0.36,1.89-0.71,2.79-1.15c1.31-0.64,2.65-1.82,3.75-2.77c1.26-1.08,2.33-2.41,3.03-3.91
				c0.4-0.86,1.49-3.47,0.52-4.22c-1.81-1.41-5.9,2.56-6.99,3.62c-2.61,2.54-4.35,5.68-5.63,9.05c-4.7,0.32-9.39,0.83-14.01,1.6
				c0.7-0.24,1.67-0.48,1.9-0.57c0.93-0.36,1.89-0.71,2.79-1.15c1.31-0.64,2.65-1.82,3.75-2.77c1.26-1.08,2.33-2.41,3.03-3.91
				c0.4-0.86,1.49-3.47,0.52-4.22c-1.81-1.41-5.9,2.56-6.99,3.62c-2.62,2.55-4.37,5.71-5.65,9.11c-4.18,0.72-8.31,1.64-12.36,2.8
				c0.53-0.31,1.08-0.61,1.24-0.72c0.82-0.57,1.67-1.14,2.43-1.78c1.12-0.93,2.14-2.4,2.99-3.58c0.96-1.35,1.69-2.89,2.01-4.52
				c0.18-0.93,0.62-3.73-0.51-4.23c-2.1-0.93-5.12,3.9-5.92,5.19c-1.89,3.03-2.83,6.42-3.28,9.94c-4.05,1.21-8,2.67-11.82,4.4
				c1.61-1.57,3.09-3.27,4.13-5.26c0.77-1.46,1.28-3.1,1.37-4.75c0.05-0.95,0.1-3.78-1.08-4.12c-2.2-0.64-4.54,4.56-5.16,5.95
				c-1.3,2.9-1.89,6.12-1.64,9.29c-7.97,3.92-15.33,9.12-21.74,15.94c-0.46,0.49,0.26,1.24,0.71,0.75
				c7.96-8.48,17.41-14.42,27.68-18.5c1.83,2.26,3.79,4.47,6.27,5.97c1.42,0.86,3.01,1.46,4.66,1.66c0.94,0.11,3.76,0.33,4.17-0.83
				c0.77-2.16-4.28-4.8-5.63-5.51c-2.26-1.18-4.75-1.91-7.29-2.13c3.43-1.26,6.96-2.32,10.53-3.2c0.37,1.32,1.3,2.43,2.1,3.53
				c1,1.4,2.13,2.71,3.46,3.8c1.28,1.04,2.78,1.86,4.39,2.28c0.92,0.24,3.68,0.84,4.25-0.25c1.06-2.04-3.58-5.34-4.82-6.22
				c-1.54-1.09-3.23-1.97-5.02-2.58c-0.88-0.3-1.82-0.43-2.68-0.75c-0.11-0.04-0.22-0.09-0.32-0.14c3.92-0.92,7.91-1.63,11.93-2.16
				c0.08,1.33,0.69,2.59,1.18,3.81c0.64,1.59,1.42,3.14,2.46,4.51c1,1.32,2.26,2.47,3.72,3.26c0.84,0.45,3.38,1.69,4.19,0.77
				c1.51-1.72-2.2-6.04-3.19-7.2c-1.23-1.43-2.67-2.68-4.26-3.7c-0.78-0.5-1.66-0.85-2.43-1.37c-0.12-0.08-0.23-0.17-0.35-0.26
				c4.48-0.55,8.99-0.89,13.51-1.06c0.04,1.38,0.68,2.69,1.19,3.96c0.64,1.59,1.42,3.14,2.46,4.52c1,1.32,2.26,2.47,3.72,3.26
				c0.84,0.45,3.38,1.69,4.19,0.77c1.51-1.72-2.2-6.04-3.19-7.2c-1.23-1.43-2.67-2.68-4.26-3.7c-0.78-0.5-1.66-0.85-2.43-1.37
				c-0.13-0.09-0.25-0.18-0.37-0.28c2.51-0.07,5.02-0.1,7.52-0.08c2.33,1.04,4.68,2.03,7.26,2.27c1.65,0.15,3.35-0.01,4.92-0.56
				C235.74,135.27,238.37,134.22,238.23,133z"/>
		</g>
	</g>
	<g>
		<g>
			<path class="st2" d="M200.22,112.03c-6.86,1.54-14.84,0.82-20.65-2.37c-7.74-4.25-12.88-12.15-15.93-20.43
				c-3.67-9.99-2.85-20.21-4.18-30.54c-0.75-5.82-3.13-11.85-8.1-14.97c-3.12-1.96-8.88-2.97-9.64,1.88
				c-1.82-1.96-3.84-3.73-6.02-5.29c-0.55-0.39-1.13-0.8-1.43-1.41c-0.21-0.43-0.26-0.91-0.3-1.38c-0.65-7.73,0.25-16.42,6.27-21.78
				c5.06-4.5,11.73-6.96,18.47-7.61c13.17-1.27,26.78,4.44,35.24,14.61c8.46,10.18,11.59,24.51,8.31,37.33
				c-1.24,4.85-3.32,9.45-4.62,14.28c-1.83,6.84-1.91,17.27,5.85,20.64c1.83,0.79,3.99,1.22,5.97,0.93c2.2-0.33,2.61-1.04,3.81-2.76
				c1.9,2.69,1.05,7.14-0.29,9.89c-1.56,3.21-4.33,5.8-7.56,7.27C203.82,111.05,202.06,111.62,200.22,112.03z"/>
		</g>
		<path class="st3" d="M158.31,134.15c-2.88-0.19-4.31-2.83-4.09-5.03l-10.89-1.83l-5.81-21.24l-17.25,11.78l2.3,14.41
			c0,0-25.66-2.69-27.07,17.53c-1.41,20.23,48.02,29.18,48.02,29.18l0.64,20.14l29.99-0.47l1.11-60.61
			C169.71,136.3,164.13,134.54,158.31,134.15z"/>
		<g>
			<path class="st4" d="M135.49,136.53c-7.05,2.09-15.3,0.44-20.85-4.12c-7.67,0.94-18.25,4.56-19.14,17.35
				c-1.41,20.23,48.02,29.18,48.02,29.18l0.64,20.14l29.99-0.47l1.27-64.95l-26.86-5.51C144.95,132.02,140.55,135.03,135.49,136.53z
				"/>
		</g>
		<g>
			<path class="st5" d="M86.42,161.84c-0.39-5.2,2.73-10.19,6.95-13.25c4.22-3.06,9.4-4.48,14.52-5.45
				c13.45-2.55,28.13-2.69,39.23-10.71c2.01,2.96,3.35,6.37,3.92,9.91"/>
		</g>
		<g>
			<path class="st5" d="M44.29,141.63c2-2.04,4-4.07,6-6.11c4.34,4.34,10.83,5.5,16.85,6.68c6.02,1.18,12.53,2.92,16.16,7.87
				c2.95,4.02,3.34,9.62,1.53,14.27"/>
		</g>
		<g>
			<path class="st6" d="M152.4,136.58c-16.78,5.29-33.55,10.58-50.33,15.87c-1.05,0.33-2.09,0.66-3.14,0.99
				c-2.86,3.16-6.67,4.91-11.64,4.71c-2.96-0.12-5.85-1.09-8.11-2.79l5.27,82.7c0.27,0.25,0.57,0.49,0.87,0.69
				c5.15,3.54,12.27,2.92,17.9,0.21c1.22-0.59,2.55-1.48,2.67-2.83c0.06-0.71,25.94-5.47,28.5-6.15c7.03-1.87,13.97-4.02,20.9-6.24
				c1.25-0.4,2.51-0.72,3.68-1.08c0.98-0.3,1.61-1.25,1.55-2.28l-5.22-81.81C155.22,137.12,153.79,136.14,152.4,136.58z"/>
		</g>
		<path class="st6" d="M79.18,155.36l-33.76-16.26c-1.7-0.82-3.66,0.48-3.56,2.37L46,220.98c0.05,0.96,0.65,1.81,1.55,2.17
			l36.9,14.9L79.18,155.36z"/>
		<path class="st7" d="M99.65,153.22c-0.24,0.08-0.48,0.15-0.72,0.23c-2.86,3.16-6.67,4.91-11.64,4.71
			c-2.96-0.12-5.85-1.09-8.11-2.79l5.27,82.7c0.27,0.25,0.57,0.49,0.87,0.69c5.15,3.54,12.27,2.92,17.9,0.21
			c0.64-0.31,1.31-0.7,1.82-1.2L99.65,153.22z"/>
		
			<ellipse transform="matrix(0.998 -0.0636 0.0636 0.998 -11.3775 8.5645)" class="st8" cx="128.83" cy="182.98" rx="16.72" ry="17.88"/>
		<g class="st9">
			<path class="st10" d="M109.64,229.7l-4.69-73.6l0.14-0.04l45.76-14.04l4.9,76.79L109.64,229.7z M105.34,156.37l4.64,72.85
				l45.36-10.72l-4.84-75.99L105.34,156.37z"/>
		</g>
		<g class="st9">
			<path class="st10" d="M79.27,231.58l-0.28-0.12l-29.22-12.77l-0.01-0.12l-3.19-72.83l28.77,13.94l0.01,0.11L79.27,231.58z
				 M50.14,218.44l28.72,12.55l-3.88-71.07l-28-13.57L50.14,218.44z"/>
		</g>
		<path class="st7" d="M94.09,169.98l-7.63,0.49c-1.48,0.09-2.76-1.03-2.86-2.52l0,0c-0.09-1.48,1.03-2.76,2.52-2.86l7.63-0.49
			c1.48-0.09,2.76,1.03,2.86,2.52l0,0C96.7,168.61,95.58,169.89,94.09,169.98z"/>
		<path class="st8" d="M97.4,232.95l-7.63,0.49c-1.48,0.09-2.76-1.03-2.86-2.52l0,0c-0.09-1.48,1.03-2.76,2.52-2.86l7.63-0.49
			c1.48-0.09,2.76,1.03,2.86,2.52l0,0C100.01,231.57,98.88,232.85,97.4,232.95z"/>
		<path class="st8" d="M99.36,217.12c0.22,3.43-2.38,6.38-5.81,6.6c-3.43,0.22-6.38-2.38-6.6-5.81c-0.22-3.43,2.38-6.38,5.81-6.6
			C96.18,211.09,99.14,213.69,99.36,217.12z"/>
		<g class="st11">
			<path class="st3" d="M141.95,122.22l-4.43-16.18l-17.25,11.78l1.96,12.3c2.92-0.54,5.79-1.27,8.59-2.24
				C134.77,126.52,138.55,124.62,141.95,122.22z"/>
		</g>
		<g>
			<path class="st12" d="M125.85,34.95c1.42-1.49,3.46-2.25,5.49-2.61c4.24-0.74,8.74,0.15,12.37,2.45c3.63,2.3,6.36,6,7.49,10.15"
				/>
		</g>
		<g>
			<path class="st13" d="M89.8,99.74c-5.96-1.62-10.79-9.14-13.3-14.41c-7.8-16.38-3.73-37.31,13.59-45.67
				c8.61-4.16,18.07-6.53,27.63-6.9c7.74-0.3,15.98,0.9,20.7,7.74c4.03-1.8,8.77-0.96,12.45,1.28c5.78,3.51,9.15,13.14,10.81,19.32
				c2.15,8.02,2.25,16.61,0.13,24.65"/>
		</g>
		<g>
			<path class="st3" d="M135.73,118.93c19-9.45,17.11-32.96,12.7-50.23c-1.71-6.69-3.27-12.67-8.27-17.68
				c-9.28-9.29-23.86-10.59-36.09-8c-8.6,1.83-17.64,7.44-21.03,15.81c-3.56,8.79-2.87,18.87,0.33,27.65
				c0.58,1.59,1.26,3.16,1.44,4.84c0.16,1.42-0.05,2.86-0.2,4.28c-0.61,6.09,0.1,12.51,3.26,17.76c5.78,9.59,18.1,10.96,28.25,10.28
				C122.86,123.2,129.65,121.95,135.73,118.93z"/>
		</g>
		<g class="st11">
			<path class="st3" d="M100.38,50.68c-1.09,4.59-0.51,9.49,1.14,13.91c1.66,4.42,4.36,8.39,7.49,11.93
				c1.34,1.51,2.78,2.96,4.49,4.03c1.97,1.23,4.23,1.9,6.5,2.42c8.65,1.97,18.09,1.73,25.94-2.38c0.3-0.16,0.62-0.34,0.77-0.65
				c0.17-0.36,0.05-0.79-0.06-1.17c-2.31-7.5-4.72-15.11-9.21-21.55c-4.48-6.44-11.43-11.63-19.26-12.05"/>
		</g>
		<g>
			<path class="st14" d="M108.74,85.57c-2.6,0.47-4.44,2.38-4.37,5.08c0.07,2.74,2.92,4.37,5.37,3.6c0.55-0.17,0.26-1.02-0.29-0.85
				c-2.09,0.65-3.91-0.71-4.19-2.81c-0.29-2.15,1.6-3.78,3.53-4.13C109.36,86.36,109.31,85.47,108.74,85.57L108.74,85.57z"/>
		</g>
		<g>
			<path class="st15" d="M106.81,98.06c0.59,1.68,1.58,3.22,3.01,4.25c1.92,1.38,4.69,1.69,6.66,0.38c1.71-1.14,2.56-3.28,2.61-5.33
				c0.03-1.13-0.16-2.25-0.45-3.34C115.01,96.01,110.9,97.27,106.81,98.06z"/>
		</g>
		<g>
			<path class="st16" d="M119.06,97.85c-2.62-0.12-5.28,0.58-7.44,2.07c-0.84,0.58-1.59,1.26-2.26,2.01
				c0.15,0.13,0.31,0.26,0.47,0.38c1.92,1.38,4.69,1.69,6.66,0.38C118.06,101.65,118.9,99.75,119.06,97.85z"/>
		</g>
		<path class="st14" d="M97.85,89.82c0.4,2.4-0.19,4.5-1.3,4.68c-1.12,0.18-2.34-1.61-2.74-4.01c-0.4-2.4,0.19-4.5,1.3-4.68
			C96.23,85.62,97.46,87.41,97.85,89.82z"/>
		<path class="st14" d="M124.61,84.8c0.4,2.4-0.19,4.5-1.3,4.68c-1.12,0.18-2.34-1.61-2.74-4.01c-0.4-2.4,0.19-4.5,1.3-4.68
			C122.99,80.6,124.22,82.4,124.61,84.8z"/>
		<g>
			<path class="st2" d="M91.84,73.25c-2.94-3.76-10.18,1-11.78,3.95c-0.37,0.68-0.52,1.53-0.23,2.25c0.56,1.36,2.34,1.68,3.8,1.54
				c2.42-0.23,4.76-1.19,6.65-2.72c0.76-0.61,1.45-1.34,1.82-2.24C92.47,75.12,92.44,74.01,91.84,73.25z"/>
		</g>
		<g>
			<g>
				<path d="M127.3,66.13c-1.03-2.71-3.83-3.31-6.48-3.09c-2.38,0.2-6.26,1.02-7.46,3.4C110.39,72.3,128.41,74.22,127.3,66.13
					c-0.08-0.57-0.94-0.33-0.86,0.24c0.57,4.12-6.3,4.53-8.98,3.96c-0.67-0.14-1.38-0.31-1.99-0.63c-0.32-0.22-0.64-0.44-0.95-0.66
					c0.09-0.99,0.17-1.99,0.26-2.98c0.36-0.53,1.54-0.94,2.09-1.16c2.77-1.13,8.19-2.15,9.57,1.47
					C126.63,66.9,127.5,66.67,127.3,66.13z"/>
			</g>
		</g>
		<path class="st17" d="M102.56,101.17c0.15,2.28-2.66,4.32-6.27,4.55c-3.61,0.23-6.65-1.43-6.8-3.72
			c-0.15-2.28,2.66-4.32,6.27-4.55C99.37,97.22,102.42,98.89,102.56,101.17z"/>
		<path class="st17" d="M135.87,91.03c0.88,2.11-1.11,4.95-4.45,6.34c-3.34,1.39-6.76,0.8-7.64-1.31c-0.88-2.11,1.11-4.95,4.45-6.34
			C131.57,88.33,134.99,88.91,135.87,91.03z"/>
		<g>
			<path class="st13" d="M101.81,42.06c-2.96,12.23,3.25,25.64,13.58,32.83c10.33,7.19,23.99,8.6,36.2,5.53
				c0.46-6.11-0.07-12.3-1.56-18.25c-1.06-4.22-2.65-8.42-5.56-11.66c-2-2.23-4.54-3.9-7.18-5.31c-9.65-5.14-21.06-6.88-31.8-4.87
				c-2,0.38-4.03,0.9-5.7,2.05"/>
		</g>
		<g>
			<path class="st3" d="M145.97,83.47c0.75-2.63,2.44-4.97,4.7-6.52c2.01-1.38,4.61-2.12,6.92-1.33c1.07,0.37,2.01,1.03,2.83,1.81
				c4.2,4,4.86,10.99,1.95,16c-2.92,5.01-8.93,7.85-14.72,7.49"/>
		</g>
		<g>
			<path class="st14" d="M152.31,97.65c-1.34-6.5-0.64-14.49,6.08-17.73c0.51-0.25,0.23-1.1-0.29-0.85
				c-7.22,3.47-8.09,11.83-6.64,18.87C151.58,98.51,152.43,98.21,152.31,97.65L152.31,97.65z"/>
		</g>
		<g>
			<path class="st14" d="M152.59,84.94c2.65,2.56,3.06,6.69,0.93,9.7c-0.33,0.47,0.34,1.06,0.67,0.59
				c2.42-3.43,2.01-8.05-1.01-10.97C152.76,83.87,152.17,84.54,152.59,84.94L152.59,84.94z"/>
		</g>
		<g>
			<path class="st13" d="M75.11,78.15c3.67-8.48,11.47-14.45,19.56-18.92c3.11-1.73,6.41-3.36,8.68-6.11
				c3.31-4.01,3.82-9.73,2.78-14.83c-8.41,0.18-16.72,3.37-23.09,8.85c-6.57,5.65-10.68,14.7-8.37,23.4"/>
		</g>
		<g class="st11">
			<path class="st3" d="M151.84,97.62c-0.72-3.07-0.88-6.31-0.14-9.38c0.74-3.07,2.43-5.95,4.95-7.86c0.75-0.57,1.82-1.05,2.59-0.5
				c0.94,0.68,1.9,3.91,2.16,5.03c1.37,5.98-2.73,11.32-8.4,13.27"/>
		</g>
		<g class="st11">
			<path class="st3" d="M112.69,88.95c-0.75-4.25-4.79-3.71-6.92-0.88c-1.08,1.43-1.25,3.63-0.04,4.95c0.5,0.55,1.19,0.9,1.89,1.12
				c1.44,0.46,3.03,0.4,4.44-0.14C112.63,92.39,112.99,90.64,112.69,88.95z"/>
		</g>
		<g class="st18">
			<path class="st7" d="M142.9,201.97c-16.39,1.64-32.99,5.87-49.09,2.4c-4.05-0.87-7.96-2.25-11.67-4.05
				c-11.59-5.6-21.22-15.34-26.8-27c-4.7-9.81-6.57-20.82-5.86-31.68l-4.44-2.09c-1.71-0.81-3.65,0.51-3.54,2.39l4.76,79.48
				c0.06,0.96,0.67,1.81,1.57,2.16l37.02,14.61c0.27,0.25,0.57,0.48,0.88,0.69c5.18,3.5,12.29,2.82,17.9,0.06
				c1.22-0.6,2.54-1.5,2.65-2.85c0.06-0.71,25.9-5.67,28.45-6.37c7.01-1.93,13.94-4.13,20.85-6.4c1.25-0.41,2.5-0.74,3.67-1.11
				c0.98-0.31,1.6-1.27,1.53-2.29l-1.34-18.7C153.92,201.18,148.39,201.42,142.9,201.97z"/>
		</g>
		<g>
			<path class="st3" d="M52.4,193.87c-3.5,1.48-6.49,5.52-9.82,1.52c-6.55-7.85-0.59-20.73,4.59-27.43
				c0.99-1.28,3.77-5.64,5.86-4.83c2.34,0.9-2.16,9.95-2.96,11.73c2.44-3.42,5.43-7.17,9.62-7.49c0.87-0.07,1.98,0.24,2.09,1.1
				c0.06,0.5-0.26,0.95-0.57,1.35c-2.27,2.95-4.54,5.9-6.81,8.84c2.47-1.63,5.21-2.85,8.07-3.61c0.73-0.19,1.5-0.35,2.22-0.16
				c0.73,0.19,1.38,0.85,1.33,1.6c-0.05,0.62-0.54,1.1-0.99,1.52c-3.1,2.85-6.2,5.69-9.3,8.54c3.6-0.08,7.22,0.58,10.56,1.94
				c0.68,0.27,1.46,0.77,1.38,1.49c-0.05,0.4-0.35,0.71-0.66,0.96c-3.83,3.1-9.2,1.44-13.62,2.57
				C53.05,193.62,52.72,193.73,52.4,193.87z"/>
		</g>
		<g>
			<path class="st3" d="M130.04,198.81c-4.54,0.42-8.73-2.87-10.98-6.85c-0.41-0.72-1.07-2.46-2.01-2.64
				c-4.42-0.85,1.1,7.52,1.69,8.34c-2.9,0.13-5.8,0.47-8.65,1.03c-1.66,0.32-3.53,0.88-4.27,2.4c0.44,1.03,1.8,1.2,2.91,1.19
				c2.92-0.01,5.84-0.15,8.75-0.42c-3.56,0.6-7.05,1.59-10.38,2.97c-0.61,0.25-1.29,0.62-1.37,1.27c-0.14,1.1,1.41,1.48,2.52,1.4
				c3.14-0.24,6.27-0.69,9.35-1.35c-3.79,1.33-7.77,2.79-10.31,5.89c0.94,1.18,2.75,1.02,4.23,0.73c2.31-0.46,4.61-0.99,6.89-1.57
				c-1.94,0.95-3.75,2.15-5.39,3.56c-0.49,0.43-0.99,0.9-1.21,1.51c-0.22,0.61-0.07,1.41,0.49,1.73c0.5,0.29,1.13,0.13,1.67-0.06
				c3.61-1.31,6.72-4.11,10.54-4.49c1.7-0.17,3.4,0.16,5.11,0.2c1.71,0.04,3.55-0.27,4.76-1.47"/>
		</g>
		<g>
			<path class="st19" d="M196.85,163.32c-3.84-7.57-6.63-16.1-12.14-22.57c-2.12-2.49-4.65-4.68-7.8-6.38
				c-6.22-3.37-13.55-2.54-17.3,3.93c-4.12,7.1-2.34,16.91,0.02,24.29c2.81,8.78,7.61,16.77,10.64,25.66
				c-8.16,1.02-16.27,1.72-24.16,3.9c-6.51,1.8-13.14,3.23-19.8,4.43c-1.18,6.01-1.33,12.29-0.6,18.38
				c13.04,2.88,26.47,3.99,39.81,3.3c13.14-0.68,28.61-2.08,40.13-8.69c0.83-0.48,1.7-0.99,2.19-1.81c0.55-0.92,0.54-2.05,0.48-3.12
				C207.59,190.24,203.36,176.14,196.85,163.32z"/>
		</g>
		<path class="st20" d="M132.9,195.3c-0.87,6.96-1.28,13.94-0.93,20.89c0.31,0.06,0.63,0.11,0.94,0.16
			c-0.37-7.07,0.05-14.17,0.95-21.25C133.55,195.16,133.23,195.23,132.9,195.3z"/>
	</g>
</g>
</svg>
