<svg xmlns="http://www.w3.org/2000/svg" xmlns:xlink="http://www.w3.org/1999/xlink" id="Layer_1" x="0" y="0" version="1.1" viewBox="0 0 250 250" xml:space="preserve" style="enable-background:new 0 0 250 250"><style type="text/css">.st0{fill:#ffd38e}.st1{opacity:.34}.st2{fill:#f27f77}.st3{fill:#d371ab}.st4{fill:#fff}.st5{fill:#4e5f97}.st6{fill:#465684}.st7{fill:#5e77bc}.st8{opacity:.22}.st9{fill:#e57370}.st10{fill:#cc6260}.st11{fill:#af4f4f}.st12{opacity:.13}</style><g><g><path d="M180.81,199.28c16.34,1.43,34.61-2.52,41.16-19.5c3.59-9.31,2.04-20.43-3.97-28.4 c5.68-24.53,6.01-54.24-18.54-68.71c-5.3-3.12-11.41-5.23-15.51-9.82c-4.49-5.02-5.73-12.07-6.8-18.72 c-1.89-11.84-4.04-22.32-14.21-29.95c-8.03-6.02-18.37-8.52-28.29-8.52c-8.22,0.01-21.24-0.16-27.28,6.2 c-0.52,0.55-1.02,1.14-1.7,1.48c-0.52,0.26-1.11,0.34-1.68,0.45c-5.68,1.07-10.58,5.03-13.29,10.07 c-2.99,5.53-1.76,10.76-1.97,16.7c-0.19,5.23-0.71,10.66-3.36,15.17c-2.88,4.9-7.96,8.13-13.2,10.34 c-5.24,2.21-10.8,3.59-16.01,5.87c-11.04,4.83-20.23,13.79-25.27,24.74c-5.04,10.95-5.86,23.78-2.2,35.26 c2.09,6.54,5.09,12.78,11.7,15.74c-0.69,4.4-1.38,8.9-0.64,13.3c1.09,6.49,7.49,13.11,12.53,17.09c7.35,5.81,16.88,8.3,26.24,8.69" class="st0"/></g><g class="st1"><path d="M98.7,53.07c2.61,9.06-3.26,18.57-10.65,24.42c-7.39,5.85-16.38,9.44-23.74,15.33 c-10.48,8.39-18.5,23.32-17.5,37.01c0.55,7.56,4.34,15.05,10.91,19.04c-0.92-0.56-1.99,12.97-1.81,14.19 c0.74,5.01,2.89,9.79,6.3,13.55c5.62,6.18,15.63,10.08,23.52,12.68c9.69,3.19,20.96,2.69,31.04,2.92c12.86,0.3,25.72,0,38.55-0.9 c3.34-0.23,6.67-0.51,10-0.82c7.95-0.75,16.01-1.76,23.34-4.94c3.94-1.71,7.73-4.14,10.07-7.74c4.02-6.2,2.93-14.38,0.69-21.43 c9.19-3.17,14.72-13.44,14.22-23.15c-0.5-9.7-6.08-18.6-13.33-25.07c-4.03-3.6-8.59-6.58-12.4-10.41 c-7.57-7.6-11.75-18.45-11.25-29.17" class="st0"/></g><g><path d="M173.33,140.47c-1.22-5.42-5.81-9.58-10.93-11.75c-5.21-2.21-10.49-2.5-16.03-2.66 c-0.01-6.24-0.01-12.48-0.02-18.71c-2.9-0.78-5.86-1.36-8.83-1.75l0.01-0.22c-0.44,0.02-0.87,0.05-1.31,0.07 c-0.43-0.05-0.86-0.11-1.3-0.15l-0.01,0.22c-3,0.22-5.98,0.62-8.92,1.24c-0.37,6.23-0.73,12.45-1.1,18.68 c-5.54-0.16-10.83-0.17-16.16,1.73c-5.23,1.87-10.06,5.75-11.59,11.09c-0.24,0.83-0.39,1.74-0.09,2.55 c0.24,0.64,0.73,1.14,1.22,1.6c4.72,4.39,11,6.67,17.24,8.29c5.86,1.52,11.92,2.52,18,2.91l0,0.06c0.43,0.01,0.87,0.01,1.3,0.01 c0.43,0.02,0.87,0.05,1.3,0.07l0-0.06c6.1-0.04,12.21-0.69,18.14-1.87c6.32-1.26,12.72-3.17,17.69-7.28 c0.52-0.43,1.04-0.91,1.32-1.53C173.62,142.23,173.52,141.31,173.33,140.47z" class="st2"/></g><g><path d="M118.39,151.4c0.23-2.13-0.11-4.3-0.43-6.43c-0.95-6.42-1.56-12.89-1.87-19.37 c-1.99,0.19-3.97,0.54-5.95,1.13c-0.47,7.01-0.93,14.01-1.4,21.02c-0.02,0.28-0.03,0.56-0.01,0.84c2.22,0.84,4.5,1.53,6.78,2.12 C116.47,150.95,117.43,151.18,118.39,151.4z" class="st3"/></g><g><path d="M152.62,126.4c-1.9,8.82-3.65,17.67-5.27,26.54c2.32-0.29,4.63-0.66,6.92-1.12c0.21-0.04,0.41-0.09,0.62-0.13 c0.43-4.53,1-9.05,1.74-13.54c0.6-3.59,1.29-7.16,1.91-10.74C156.59,126.9,154.62,126.6,152.62,126.4z" class="st3"/></g><g><path d="M131.59,148.58c0.22-5.94,2.33-12.16,7.1-15.7c2.48-1.84,5.49-2.83,8.48-3.62c7.04-1.86,14.3-2.8,21.4-4.44 c7.1-1.64,14.18-4.05,19.97-8.47c2.86,3.58,5.71,7.16,8.57,10.74" class="st4"/></g><g><path d="M131.59,148.58c0.12-5.94-1.62-12.27-6.18-16.09c-2.37-1.98-5.31-3.14-8.25-4.1 c-6.92-2.27-14.11-3.63-21.11-5.68c-6.99-2.05-13.92-4.87-19.45-9.62c-3.06,3.41-6.12,6.82-9.17,10.23" class="st4"/></g><g><path d="M197.12,119.35c-0.01,0.01-0.03,0.01-0.04,0.02c-8.1,3.76-16.53,6.77-24.89,9.86 c-4.33,1.6-8.71,3.11-12.97,4.9c-3.68,1.55-8.04,1.8-11.47,4.01c-1.39,0.89-2.58,2.07-3.96,2.97c-2.46,1.61-7,2-10.19,1.99 c-3.19-0.17-7.7-0.83-10.06-2.57c-1.33-0.98-2.45-2.22-3.78-3.2c-3.3-2.4-7.63-2.91-11.22-4.67c-4.14-2.03-8.43-3.8-12.66-5.65 c-8.17-3.57-16.41-7.06-24.28-11.28c-0.01-0.01-0.03-0.01-0.04-0.02c-1.48-0.79-3.27,0.28-3.32,1.96l-2.46,84.83 c-0.02,0.85,0.43,1.64,1.17,2.06c12.09,6.79,23.47,14.81,36.19,20.07c4.07,1.68,7.85,4.67,12.47,2.59 c2.62,4.39,7.68,6.95,12.77,7.48c0.86,0.09,1.72,0.12,2.57,0.13c0.86,0.04,1.71,0.06,2.58,0.02c5.11-0.24,10.31-2.49,13.18-6.73 c4.49,2.35,8.43-0.42,12.59-1.86c13-4.51,24.83-11.86,37.29-17.94c0.77-0.37,1.26-1.13,1.29-1.99l2.46-84.83 C200.37,119.82,198.64,118.65,197.12,119.35z" class="st5"/></g><path d="M149.06,137.4c-0.45,0.22-0.89,0.46-1.32,0.74c-1.39,0.89-2.58,2.07-3.96,2.97c-2.46,1.61-7,2-10.19,1.99 c-3.19-0.17-7.7-0.83-10.06-2.57c-1.33-0.98-2.45-2.22-3.78-3.2c-0.54-0.39-1.12-0.72-1.71-1.03l-2.64,90.99 c0.06-0.03,0.12-0.04,0.19-0.07c2.62,4.39,7.68,6.95,12.77,7.48c0.86,0.09,1.72,0.12,2.57,0.13c0.86,0.04,1.71,0.06,2.58,0.02 c4.96-0.23,10-2.37,12.92-6.36L149.06,137.4z" class="st6"/><g><path d="M152.78,222.87l1.95-81.5l0.18-0.07l40.31-14.68l-0.01,0.41l-1.76,77.03l-0.16,0.07L152.78,222.87z M155.28,141.77l-1.92,80.21l39.52-18.28l1.75-76.26L155.28,141.77z" class="st7"/></g><g><path d="M109.5,221.6l-0.39-0.2l-37.9-19.38l0.01-0.18l2.21-78.29l40.31,15.41l0.02,0.16 c0.07,0.46-3.52,68.42-4.24,82.04L109.5,221.6z M71.78,201.68l37.2,19.02c0.33-6.26,4.08-77.22,4.21-81.34l-39.23-14.99 L71.78,201.68z" class="st7"/></g><path d="M140.16,201.59l-16.04-0.47c-1.27-0.04-2.27-1.09-2.23-2.36l0.04-1.51c0.04-1.27,1.09-2.27,2.36-2.23 l16.04,0.47c1.27,0.04,2.27,1.09,2.23,2.36l-0.04,1.51C142.49,200.63,141.43,201.63,140.16,201.59z" class="st0"/><path d="M138.58,216.26c-0.11,3.92-3.39,7.01-7.31,6.9c-3.92-0.11-7.01-3.39-6.9-7.31c0.11-3.92,3.39-7.01,7.31-6.9 C135.61,209.07,138.7,212.34,138.58,216.26z" class="st0"/><polygon points="160.85 204.63 188.24 193.37 188.07 199.39 160.66 211.23" class="st6"/><path d="M190.05,140.18l-31.11,11.1l-0.33,11.22c0,0,25.64-9.26,31.11-11.03L190.05,140.18z" class="st6"/><g class="st8"><path d="M146.36,107.34c-2.9-0.78-5.86-1.36-8.83-1.75l0.01-0.22c-0.44,0.02-0.87,0.05-1.31,0.07 c-0.43-0.05-0.86-0.11-1.3-0.15l-0.01,0.22c-3,0.22-5.98,0.62-8.92,1.24c-0.26,4.38-0.52,8.76-0.77,13.14 c7,1.02,14.15,0.99,21.15-0.06C146.36,115.67,146.36,111.51,146.36,107.34z" class="st2"/></g><g><path d="M167.42,69.08c0.75-3.25,3.19-6.15,6.39-7.08c3.2-0.94,7.02,0.34,8.71,3.22c0.64,1.08,0.97,2.32,1.13,3.57 c0.6,4.76-1.34,9.66-4.66,13.13c-2.63,2.76-6.49,4.75-10.2,3.92" class="st9"/></g><g><path d="M103.73,76.89c-1.12-3.14-3.88-5.74-7.17-6.3s-6.93,1.15-8.28,4.2c-0.51,1.15-0.69,2.42-0.71,3.68 c-0.05,4.8,2.45,9.44,6.15,12.51c2.93,2.43,6.99,3.97,10.59,2.71" class="st9"/></g><g><g><path d="M170.64,83.76c0-6.5,2.55-13.26,9.06-15.71c0.56-0.21,0.34-1.12-0.22-0.91c-6.92,2.6-9.77,9.62-9.77,16.59 C169.71,84.33,170.64,84.36,170.64,83.76L170.64,83.76z" class="st10"/></g><g><path d="M174.57,71.03c1.97,3,1.75,6.88-0.64,9.59c-0.4,0.45,0.24,1.14,0.64,0.68c2.66-3.01,3.03-7.34,0.82-10.72 C175.06,70.08,174.24,70.53,174.57,71.03L174.57,71.03z" class="st10"/></g></g><g><g><path d="M103.15,91.66c-0.79-6.85-4.44-13.52-11.54-15.29c-0.59-0.15-0.86,0.75-0.28,0.9 c6.82,1.7,10.15,8.09,10.9,14.62C102.3,92.48,103.21,92.26,103.15,91.66L103.15,91.66z" class="st10"/></g><g><path d="M96.03,79.23c-1.8,3.58-1.05,7.89,1.96,10.57c0.45,0.4,1.13-0.24,0.68-0.64c-2.67-2.39-3.47-6.21-1.85-9.43 C97.09,79.19,96.3,78.69,96.03,79.23L96.03,79.23z" class="st10"/></g></g><g><path d="M155.64,28.79c-5.59-4.04-13.58-4.52-20.27-4.41c-7.8,0.12-17.06,0.96-24.24,4.16 c-4.16,1.86-7.67,6.26-10.15,10.02c-5.77,8.72-4.37,19.82-2.12,29.55c0.39,1.69,0.86,3.37,0.97,5.11 c0.42,7.08-0.39,13.85,2.11,20.72c2.1,5.78,6.68,11.85,12.21,14.6c7.37,3.67,15.86,4.79,24,3.93c5.57-0.59,11.17-1.43,16.49-3.26 c6.53-2.24,12.81-7.65,15.55-14.13c2.1-4.98,2.07-9.21,1.26-14.51c-0.63-4.08-0.86-8.11-2.94-11.79 c-0.19-0.33-0.39-0.67-0.42-1.05c-0.02-0.23,0.02-0.46,0.06-0.68C170.42,53.8,167.09,37.07,155.64,28.79z" class="st2"/></g><g><path d="M116.11,58.37c-3.12-1.72-12.96,3.24-11.16,7.35c0.32,0.72,1.1,1.13,1.87,1.32 c1.62,0.41,3.37,0.12,4.88-0.59c1.51-0.71,2.81-1.82,3.92-3.07c0.65-0.72,1.26-1.53,1.46-2.48 C117.28,59.95,116.96,58.83,116.11,58.37z" class="st11"/></g><g><path d="M143.88,54.9c2.5-2.55,13.34-0.62,12.8,3.83c-0.1,0.78-0.73,1.4-1.41,1.8c-1.43,0.86-3.19,1.09-4.84,0.84 c-1.65-0.25-3.21-0.94-4.64-1.81c-0.83-0.51-1.64-1.1-2.11-1.95C143.22,56.76,143.2,55.6,143.88,54.9z" class="st11"/></g><g><path d="M131.88,85.42c4.01,3.73,10.28,1.25,10.6-4.24c0.04-0.61-0.91-0.63-0.94-0.03c-0.27,4.63-5.56,6.8-8.98,3.62 C132.12,84.37,131.44,85.01,131.88,85.42L131.88,85.42z" class="st11"/></g><path d="M121.44,75.69c0.21,2.57-0.66,4.73-1.94,4.84c-1.28,0.11-2.49-1.89-2.7-4.45c-0.21-2.57,0.66-4.73,1.94-4.84 C120.02,71.13,121.23,73.13,121.44,75.69z" class="st11"/><path d="M150.89,72.34c0.21,2.57-0.66,4.73-1.94,4.84c-1.28,0.11-2.49-1.89-2.7-4.45c-0.21-2.57,0.66-4.73,1.94-4.84 C149.47,67.78,150.68,69.77,150.89,72.34z" class="st11"/><g><path d="M106.81,62.64c0.68-3.09,1.17-6.23,1.44-9.38c1.31,2.38,2.28,4.96,2.86,7.62c0.12,0.55,0.26,1.13,0.49,1.64 c8.31-0.34,16.61-1.2,24.88-2c0.35-0.03,0.71-0.07,1.06-0.1c0.09-3.01,0.18-6.02,0.27-9.03c1.15,2.84,2.09,5.76,2.83,8.73 c6.65-0.63,13.27-1.26,19.88-2.28c0.09-2.96,0.17-5.91,0.26-8.87c0.78,2.81,1.41,5.65,1.91,8.52c0.19-0.03,0.38-0.06,0.57-0.09 c2.51-0.43,4.98-0.89,7.36-1.53c0.32-3.07,0.34-7.7,0.32-8.39c-0.09-3.75-0.73-7.54-2.58-10.84c-1.05-1.88-2.45-3.54-3.97-5.06 c-6.98-6.97-16.57-11.05-26.38-12.08c-9.81-1.04-19.79,0.84-28.92,4.57c-3.6,1.47-7.18,3.29-10.06,5.95 c-2.79,2.58-3.72,5.94-4.67,9.56c-1.92,7.34-2.06,15.18-0.73,22.66C98.02,62.6,102.41,62.71,106.81,62.64z" class="st0"/></g><g class="st8"><path d="M135.78,72.18c-3.25-0.4-7.81,2.54-6,6.27c0.74,1.53,2.68,2.22,4.23,2.57c1.63,0.36,2.31,0.5,3.2-0.84 c0.66-1,0.87-2.66,0.82-3.83c-0.07-1.71-0.94-3.47-2.47-4.24" class="st2"/></g><g><path d="M135.08,71.99c-3.09-0.36-6.09,1.81-6.23,5.01c-0.14,3.24,3.94,4.84,6.55,4.52c0.6-0.07,0.37-0.99-0.22-0.91 c-2.55,0.31-5.87-1.45-5.28-4.45c0.45-2.3,3.06-3.46,5.16-3.22C135.65,73.01,135.68,72.06,135.08,71.99L135.08,71.99z" class="st11"/></g><g class="st12"><path d="M196.15,179.65c-20.32-5.71-41.91-1.82-63.01-1.37c-5.89,0.13-11.86-0.03-17.54-1.6 c-15.97-4.42-27.16-19.57-31.52-35.55c-1.84-6.75-2.68-13.67-2.94-20.66c-3.22-1.5-6.42-3.07-9.55-4.75 c-0.01-0.01-0.03-0.01-0.04-0.02c-1.48-0.79-3.27,0.28-3.32,1.96l-2.46,84.83c-0.02,0.85,0.43,1.64,1.17,2.06 c12.09,6.79,23.47,14.81,36.19,20.07c4.07,1.68,7.85,4.67,12.47,2.59c2.62,4.39,7.68,6.95,12.77,7.48 c0.86,0.09,1.72,0.12,2.57,0.13c0.86,0.04,1.71,0.06,2.58,0.02c5.11-0.24,10.31-2.49,13.18-6.73c4.49,2.35,8.43-0.42,12.59-1.86 c13-4.51,24.83-11.86,37.29-17.94c0.77-0.37,1.26-1.13,1.29-1.99l0.75-25.94C197.8,180.13,196.98,179.88,196.15,179.65z" class="st5"/></g><g><path d="M73.59,166.44c-3.67,0.92-7.24,4.44-9.9-0.01c-5.24-8.73,2.6-20.49,8.73-26.3c1.17-1.11,4.57-4.97,6.51-3.86 c2.16,1.25-3.66,9.47-4.72,11.09c2.93-3,6.44-6.22,10.62-5.89c0.87,0.07,1.92,0.54,1.88,1.41c-0.02,0.5-0.41,0.9-0.77,1.24 c-2.69,2.55-5.37,5.11-8.06,7.66c2.68-1.23,5.56-2.01,8.49-2.32c0.74-0.08,1.53-0.12,2.21,0.18c0.69,0.3,1.23,1.05,1.06,1.78 c-0.14,0.6-0.7,1-1.21,1.35c-3.49,2.33-6.97,4.65-10.46,6.98c3.56,0.47,7.02,1.68,10.09,3.53c0.62,0.37,1.32,0.98,1.13,1.68 c-0.11,0.38-0.46,0.65-0.8,0.85c-4.24,2.46-9.27,0-13.8,0.45C74.26,166.3,73.92,166.36,73.59,166.44z" class="st2"/></g><g><path d="M190.08,166.54c3.64,1.06,7.06,4.7,9.9,0.36c5.56-8.53-1.83-20.57-7.74-26.6c-1.13-1.15-4.39-5.14-6.36-4.1 c-2.21,1.17,3.3,9.6,4.3,11.26c-2.82-3.1-6.21-6.46-10.39-6.28c-0.87,0.04-1.93,0.47-1.94,1.33c0,0.5,0.37,0.91,0.72,1.27 c2.59,2.65,5.18,5.3,7.77,7.96c-2.63-1.32-5.48-2.22-8.4-2.63c-0.74-0.1-1.52-0.18-2.22,0.1c-0.7,0.27-1.27,1-1.13,1.73 c0.12,0.61,0.66,1.03,1.16,1.39c3.4,2.46,6.8,4.91,10.19,7.37c-3.57,0.34-7.07,1.42-10.22,3.15c-0.64,0.35-1.35,0.93-1.19,1.64 c0.09,0.39,0.43,0.66,0.77,0.88c4.15,2.62,9.26,0.35,13.77,0.96C189.41,166.36,189.75,166.44,190.08,166.54z" class="st2"/></g></g></svg>